<?xml version="1.0" encoding="UTF-8"?>
<svg preserveAspectRatio="xMidYMid meet" xmlns="http://www.w3.org/2000/svg" width="48" height="48" viewBox="0 0 48 48">
  <rect width="48" height="48" rx="12" fill="#1E3045"/>
  <path transform="translate(12,12)" fill="#FFFFED" fill-rule="evenodd" clip-rule="evenodd" d="m19 5h-3v-1a3 3 0 0 0 -3-3h-2a3 3 0 0 0 -3 3v1h-3a5.006 5.006 0 0 0 -5 5v8a5.006 5.006 0 0 0 5 5h14a5.006 5.006 0 0 0 5-5v-8a5.006 5.006 0 0 0 -5-5zm-9-1a1 1 0 0 1 1-1h2a1 1 0 0 1 1 1v1h-4zm5 11h-2v2a1 1 0 0 1 -2 0v-2h-2a1 1 0 0 1 0-2h2v-2a1 1 0 0 1 2 0v2h2a1 1 0 0 1 0 2z" />
</svg>
