<?xml version="1.0" encoding="UTF-8"?>
<!DOCTYPE svg PUBLIC "-//W3C//DTD SVG 1.1//EN" "http://www.w3.org/Graphics/SVG/1.1/DTD/svg11.dtd">
<!-- Creator: CorelDRAW -->
<svg xmlns="http://www.w3.org/2000/svg" xml:space="preserve" width="11in" height="10in" version="1.1" style="shape-rendering:geometricPrecision; text-rendering:geometricPrecision; image-rendering:optimizeQuality; fill-rule:evenodd; clip-rule:evenodd"
viewBox="0 0 11000 10000"
 xmlns:xlink="http://www.w3.org/1999/xlink"
 xmlns:xodm="http://www.corel.com/coreldraw/odm/2003"
 xmlns:svg="http://www.w3.org/2000/svg"
 data-name="Camada 1">
 <defs>
  <style type="text/css">
   <![CDATA[
    .fil2 {fill:#009A57;fill-rule:nonzero}
    .fil0 {fill:#303458;fill-rule:nonzero}
    .fil1 {fill:#303558;fill-rule:nonzero}
    .fil3 {fill:#384782;fill-rule:nonzero}
    .fil4 {fill:#F6E529;fill-rule:nonzero}
   ]]>
  </style>
 </defs>
 <g id="Layer_x0020_1">
  <metadata id="CorelCorpID_0Corel-Layer"/>
  <g id="_522002304">
   <g id="svg_1">
    <path id="svg_2" class="fil0" d="M1687.71 7778.65c87.29,11.56 156.98,26.46 209.17,44.9 16.15,4.58 26.56,10.42 31.04,17.29 4.48,6.87 7.6,18.85 9.48,35.73l35.1 320.31c0,4.58 -4.48,7.71 -13.54,9.17 -9.06,1.56 -15.31,-0.73 -18.85,-6.87 -50.42,-125.94 -122.4,-222.4 -215.94,-289.17 -93.54,-66.87 -206.04,-100.21 -337.4,-100.21 -122.4,0 -231.67,28.02 -327.92,84.06 -96.25,56.15 -171.87,136.35 -226.77,240.83 -54.9,104.48 -82.29,226.67 -82.29,366.35 0,139.69 28.33,265.42 85,372.19 56.67,106.77 135,188.96 234.79,246.56 99.9,57.6 214.58,86.46 344.17,86.46 129.58,0 228.54,-28.75 313.13,-86.46 84.58,-57.6 164.69,-152.4 240.21,-284.58 1.77,-4.58 7.19,-6.15 16.15,-4.58 8.96,1.56 13.54,4.58 13.54,9.27l-40.52 285.73c-3.65,18.44 -7.19,30.31 -10.83,35.73 -3.65,5.42 -13.54,11.15 -29.69,17.29 -165.52,50.73 -332.92,76.04 -501.98,76.04 -192.6,0 -364.79,-31.15 -516.87,-93.33 -152.08,-62.19 -271.25,-149.37 -357.6,-261.56 -86.35,-112.08 -129.58,-239.69 -129.58,-382.5 0,-142.81 44.48,-276.15 133.65,-390.63 89.06,-114.48 211.35,-203.96 367.08,-268.44 155.63,-64.48 328.85,-96.77 519.58,-96.77 84.58,0 170.42,5.73 257.71,17.29l0 -0.1 0 -0z"/>
    <path id="svg_3" class="fil0" d="M2724.17 9154.38c-130.52,-66.87 -231.25,-157.5 -302.29,-271.87 -71.15,-114.37 -106.56,-239.27 -106.56,-374.48 0,-158.23 46.77,-293.85 140.31,-406.77 93.54,-112.92 213.65,-197.81 360.31,-254.69 146.67,-56.77 296.46,-85.21 449.37,-85.21 170.94,0 321.15,34.17 450.73,102.5 129.58,68.33 228.96,158.65 298.23,270.73 69.27,112.19 103.96,231.25 103.96,357.19 0,139.79 -43.23,268.13 -129.58,384.79 -86.35,116.77 -201.98,208.96 -346.77,276.56 -144.9,67.6 -301.87,101.35 -470.94,101.35 -169.06,0 -316.25,-33.44 -446.67,-100.21l-0.1 0.1 0 0zm806.98 -32.29c80,-49.9 142.6,-122.92 187.6,-218.96 45,-95.94 67.5,-210.83 67.5,-344.48 0,-141.35 -25.21,-267.71 -75.52,-379.06 -50.42,-111.35 -123.23,-198.54 -218.65,-261.56 -95.42,-63.02 -206.98,-94.48 -334.69,-94.48 -163.75,0 -289.69,52.6 -377.81,157.81 -88.23,105.21 -132.29,252.29 -132.29,441.25 0,149.06 26.56,282.29 79.58,399.79 53.02,117.5 125.94,209.37 218.65,275.42 92.6,66.04 197.5,99.06 314.48,99.06 100.73,0 191.15,-25 271.25,-74.9l-0.1 0.1 -0 0z"/>
    <path id="svg_4" class="fil0" d="M4992.6 9229.27c-28.85,-1.56 -64.37,-3.02 -106.56,-4.58 -42.29,-1.46 -89.58,-2.29 -141.67,-2.29l-199.69 2.29c-36.04,1.56 -84.58,2.29 -145.73,2.29 -3.65,0 -5.42,-4.58 -5.42,-13.85 0,-9.27 1.77,-13.85 5.42,-13.85 57.6,0 99.9,-3.85 126.87,-11.56 26.98,-7.71 45.42,-22.6 55.31,-44.9 9.9,-22.29 14.79,-56.46 14.79,-102.5l0 -1066.98c0,-46.04 -5,-79.9 -14.79,-101.35 -9.9,-21.46 -27.92,-36.46 -53.96,-44.9 -26.15,-8.44 -67.08,-12.71 -122.81,-12.71 -5.42,0 -8.13,-4.58 -8.13,-13.85 0,-9.27 2.71,-13.85 8.13,-13.85l143.02 2.29c82.71,3.13 148.44,4.58 196.98,4.58 73.75,0 149.37,-2.29 226.67,-6.87 93.54,-3.02 156.56,-4.58 188.96,-4.58 181.67,0 343.23,30.73 484.48,92.19 141.25,61.46 250.52,145.21 327.92,251.15 77.4,106.04 116.04,225.1 116.04,357.19 0,149.06 -40.1,280.83 -120.1,395.21 -80.1,114.48 -188.02,202.81 -323.85,265 -135.83,62.19 -284.79,93.33 -446.67,93.33 -57.6,0 -125.94,-2.29 -205.1,-6.87l-0.1 0 -0.01 0zm483.13 -120.94c88.13,-49.9 156.98,-124.06 206.46,-222.4 49.48,-98.33 74.17,-215.83 74.17,-352.6 0,-136.77 -23.44,-249.27 -70.21,-356.04 -46.77,-106.77 -113.33,-190.83 -199.69,-252.29 -86.35,-61.46 -186.25,-92.19 -299.58,-92.19 -113.33,0 -188.02,9.17 -229.37,27.6 -41.46,18.44 -62.08,57.6 -62.08,117.5l0 1036.98c0,61.46 18.85,104.9 56.67,130.21 37.81,25.31 110.63,38.02 218.65,38.02 115.1,0 216.77,-25 305,-74.9l0 0.1 0 0.01z"/>
    <path id="svg_5" class="fil0" d="M7637.6 8855.94c5.42,0 10.31,1.15 14.79,3.44 4.48,2.29 6.77,4.27 6.77,5.73 -18.02,119.79 -26.98,228.96 -26.98,327.19 0,12.29 -2.71,21.15 -8.13,26.46 -5.42,5.42 -16.15,8.02 -32.4,8.02l-1192.92 0c-5.42,0 -8.13,-4.58 -8.13,-13.85 0,-9.27 2.71,-13.85 8.13,-13.85 57.6,0 99.37,-3.85 125.52,-11.56 26.04,-7.71 43.65,-22.6 52.6,-44.9 8.96,-22.29 13.54,-56.46 13.54,-102.5l0 -1066.98c0,-46.04 -4.48,-79.9 -13.54,-101.35 -9.06,-21.46 -26.98,-36.46 -53.96,-44.9 -26.98,-8.44 -68.44,-12.71 -124.17,-12.71 -5.42,0 -8.13,-4.58 -8.13,-13.85 0,-9.27 2.71,-13.85 8.13,-13.85l1144.37 0c17.92,0 26.98,6.87 26.98,20.73l5.42 306.46c0,3.13 -5,5.42 -14.9,6.87 -9.9,1.56 -15.73,0 -17.5,-4.58 -28.85,-89.06 -77.4,-155.1 -145.73,-198.23 -68.44,-43.02 -158.33,-64.48 -269.9,-64.48l-80.94 0c-53.96,0 -93.54,10 -118.75,30 -25.21,20 -37.81,50.73 -37.81,92.19l0 470.1 224.06 0c104.37,0 184.37,-15.31 240.21,-46.04 55.73,-30.73 83.65,-73.75 83.65,-129.06 0,-4.58 4.9,-6.87 14.9,-6.87 10,0 14.79,2.29 14.79,6.87l-2.71 207.4 2.71 110.63c3.54,52.29 5.42,93.75 5.42,124.48 0,3.13 -5.42,4.58 -16.15,4.58 -10.73,0 -16.15,-1.46 -16.15,-4.58 0,-62.92 -28.33,-112.5 -85,-148.65 -56.67,-36.04 -138.13,-54.17 -244.27,-54.17l-221.35 0 0 520.83c0,44.58 9.9,77.6 29.69,99.06 19.79,21.56 51.25,32.29 94.48,32.29l89.06 0c140.31,0 252.81,-24.58 337.4,-73.75 84.58,-49.17 146.67,-125.21 186.25,-228.13 0,-3.02 3.54,-4.58 10.83,-4.58l-0.21 0.1 -0 0.01z"/>
    <path id="svg_6" class="fil0" d="M8364.9 8166.98c33.23,43.02 74.17,80.63 122.81,112.92 48.54,32.29 114.27,71.46 196.98,117.5 90,49.17 161.98,92.19 215.94,129.06 53.96,36.87 99.9,81.77 137.6,134.79 37.81,53.02 56.67,114.06 56.67,183.23 0,79.9 -25.21,150.94 -75.52,213.13 -50.42,62.19 -120.1,110.63 -209.17,145.21 -89.06,34.58 -188.54,51.87 -298.23,51.87 -80.94,0 -165.52,-9.58 -253.75,-28.75 -88.13,-19.17 -147.6,-40.31 -178.13,-63.33 -9.06,-6.15 -15.73,-11.87 -20.21,-17.29 -4.48,-5.31 -6.77,-14.17 -6.77,-26.46l-8.13 -366.35 0 -2.29c0,-6.15 4.48,-9.58 13.44,-10.42 8.96,-0.73 14.37,1.98 16.15,8.02 53.96,93.75 101.25,169.79 141.67,228.13 40.52,58.44 91.77,109.9 153.85,154.37 62.08,44.58 132.71,66.87 211.87,66.87 71.98,0 131.35,-16.46 178.13,-49.58 46.77,-33.02 70.21,-89.48 70.21,-169.37 0,-67.6 -17.5,-126.77 -52.6,-177.4 -35.1,-50.73 -77.81,-93.65 -128.23,-129.06 -50.42,-35.31 -119.69,-77.6 -207.81,-126.77 -86.35,-47.6 -153.44,-88.33 -201.04,-122.08 -47.71,-33.75 -88.65,-74.48 -122.81,-122.08 -34.17,-47.6 -51.25,-103.75 -51.25,-168.23 0,-81.46 27.4,-150.1 82.29,-206.25 54.9,-56.04 125.52,-97.5 211.87,-124.48 86.35,-26.87 177.19,-40.31 272.6,-40.31 62.92,0 126.87,5 191.67,15 64.79,10 116.98,21.87 156.56,35.73 16.15,6.15 26.98,12.71 32.4,19.58 5.42,6.87 8.13,15.73 8.13,26.46l0 338.75c0,4.58 -4.48,8.02 -13.54,10.42 -9.06,2.29 -14.37,1.15 -16.15,-3.44l-21.56 -43.75c-45,-96.77 -97.6,-178.96 -157.92,-246.56 -60.31,-67.6 -144.37,-101.35 -252.4,-101.35 -71.98,0 -130.94,17.71 -176.77,53.02 -45.94,35.31 -68.85,86.77 -68.85,154.37 0,55.31 16.56,104.48 49.9,147.5l0.1 -0.31 0.01 0.01z"/>
    <path id="svg_7" class="fil0" d="M10590.31 8113.96c0,3.13 -5,5.42 -14.9,6.87 -9.9,1.56 -15.73,0 -17.5,-4.58 -28.85,-89.06 -77.4,-155.1 -145.73,-198.23 -68.44,-43.02 -158.33,-64.48 -269.9,-64.48l-80.94 0c-53.96,0 -93.54,10 -118.75,30 -25.21,20 -37.81,50.73 -37.81,92.19l0 497.71 194.37 0c104.37,0 183.96,-15.73 238.85,-47.29 54.9,-31.46 82.29,-74.9 82.29,-130.21 0,-3.02 5.42,-4.58 16.15,-4.58 10.73,0 16.15,1.56 16.15,4.58l-2.71 209.69c0,49.17 0.83,86.04 2.71,110.63l2.71 122.08c0,4.58 -5.42,6.87 -16.15,6.87 -10.73,0 -16.15,-2.29 -16.15,-6.87 0,-61.46 -28.33,-110.21 -85,-146.35 -56.67,-36.04 -137.19,-54.17 -241.56,-54.17l-191.67 0 0 493.13c0,47.6 7.19,82.92 21.56,106.04 14.37,23.02 41.35,39.17 80.94,48.44 39.58,9.27 101.67,13.85 186.25,13.85 3.54,0 5.42,4.58 5.42,13.85 0,9.27 -1.77,13.85 -5.42,13.85 -73.75,0 -131.35,-0.73 -172.71,-2.29l-275.31 -2.29 -202.4 2.29c-36.04,1.56 -85.52,2.29 -148.44,2.29 -5.42,0 -8.13,-4.58 -8.13,-13.85 0,-9.27 2.71,-13.85 8.13,-13.85 62.92,0 108.85,-3.85 137.6,-11.56 28.75,-7.71 48.13,-22.6 58.02,-44.9 9.9,-22.29 14.79,-56.46 14.79,-102.5l0 -1066.98c0,-46.04 -4.48,-79.9 -13.54,-101.35 -9.06,-21.46 -26.98,-36.46 -53.96,-44.9 -26.98,-8.44 -68.44,-12.71 -124.17,-12.71 -5.42,0 -8.13,-4.58 -8.13,-13.85 0,-9.27 2.71,-13.85 8.13,-13.85l1144.37 0c17.92,0 26.98,6.87 26.98,20.73l5.42 306.46 0.1 0.1 0 0z"/>
   </g>
   <g id="svg_8">
    <path id="svg_9" class="fil1" d="M6090.73 930.52l0 266.56c-1349.48,-92.92 -2347.71,439.48 -3002.19,1597.6 6.35,8.13 12.6,16.25 18.96,24.37 14.37,-15.1 32.6,-28.23 42.6,-45.73 147.08,-256.04 334.9,-480.83 556.98,-674.79 337.19,-294.58 725.31,-501.67 1161.67,-613.85 145.83,-37.5 296.25,-60.21 445.83,-80.31 121.56,-16.25 245.31,-26.56 367.81,-24.79 132.19,1.87 264.17,20.83 397.5,32.5l0 212.92c-215.94,-54.9 -433.44,-79.06 -652.4,-75.63 -257.6,4.06 -511.67,39.69 -759.27,115.21 -317.19,96.67 -609.17,243.65 -865.63,449.69 -269.06,216.25 -493.23,472.29 -655.94,779.69 -121.46,229.48 -206.46,470.1 -256.77,722.29 -20,100.42 -23.13,204.37 -28.44,307.4 -13.02,253.02 7.92,507.5 72.4,752.71 139.58,530.83 425.42,944.06 821.77,1277.81 353.85,298.02 761.98,485 1216.67,564.69 194.79,34.17 397.29,47.08 595,39.27 427.4,-16.77 829.37,-130.21 1203.65,-342.81 244.9,-139.06 460.83,-310.42 645.94,-517.4 289.48,-323.75 490.42,-695.83 573.23,-1123.13 26.98,-139.06 33.44,-281.87 55.52,-422.08 5.31,-33.54 28.96,-70.83 55.63,-93.23 78.23,-65.63 162.29,-124.58 247.6,-188.96 90,71.25 154.9,151.87 132.4,279.37 -29.37,166.56 -41.04,336.87 -80.31,500.94 -81.98,342.4 -238.23,652.71 -451.35,935.21 -227.5,301.56 -509.58,543.65 -837.08,731.35 -276.25,158.44 -571.67,277.08 -888.96,327.29 -195.52,30.94 -394.06,60.31 -591.25,59.9 -431.35,-0.83 -845.73,-90.31 -1238.33,-275 -248.02,-116.67 -472.4,-263.96 -679.79,-441.35 -235.73,-201.56 -426.67,-437.08 -578.85,-704.37 -39.69,-69.69 -72.6,-143.02 -109.9,-214.06 -8.96,-16.98 -23.02,-31.46 -39.48,-43.33 384.17,1130.31 1539.9,1973.65 2879.37,1897.71 1465.1,-83.02 2585.52,-1187.71 2736.46,-2588.96 60.73,244.48 -210.94,1065.94 -502.81,1507.5 -305.1,461.67 -702.29,827.29 -1194.17,1089.48 -1305.83,696.04 -2957.81,451.46 -3992.92,-684.37 -978.75,-1073.96 -1126.87,-2664.9 -330.42,-3899.17 844.58,-1308.75 2331.67,-1702.5 3508.96,-1418.54l0.31 0.42 0.02 -0.01z"/>
    <path id="svg_10" class="fil1" d="M7850.52 3108.96c355,-41.77 711.25,-83.75 1080.21,-127.19 -102.29,316.35 -202.19,625.52 -303.13,937.81 -90.94,-85.73 -173.75,-163.65 -261.25,-246.04 -108.13,83.54 -215.73,165.94 -322.5,249.48 -243.85,190.52 -486.67,382.29 -731.35,571.77 -43.44,33.65 -67.92,66.04 -67.19,126.46 3.96,323.33 2.5,646.77 0.73,970.21 -0.1,24.79 -8.85,56.56 -25.73,73.13 -275.63,271.56 -596.77,472.71 -964.27,600.94 -7.81,2.71 -16.98,1.87 -34.37,3.54l0 -70.52c0,-290.42 -1.04,-580.94 1.04,-871.35 0.31,-36.35 -19.06,-69.69 -50.31,-88.85 -85.63,-52.29 -168.44,-108.96 -261.87,-170l0 1285.1c-349.69,62.71 -690.42,48.96 -1032.08,-38.54l0 -1152.5c-102.92,81.35 -198.13,153.96 -289.27,231.15 -15.73,13.33 -20.52,45.83 -20.73,69.58 -1.46,224.17 -0.83,448.44 -0.83,672.71 0,20.94 0,41.77 0,73.33 -368.65,-152.5 -672.19,-376.77 -938.02,-663.85 676.67,-483.54 1351.25,-965.52 2029.48,-1450.21 202.5,223.02 404.69,445.83 611.35,673.54 102.5,-75.52 204.58,-150 306.04,-225.42 449.37,-334.06 898.13,-668.85 1348.33,-1001.87 34.17,-25.31 49.37,-43.96 33.44,-88.96 -38.85,-110 -70.52,-222.6 -107.92,-343.44l0.21 0 -0 0z"/>
    <path id="svg_11" class="fil2" d="M6236.87 745.31l998.96 0c0,19.58 0,39.9 0,60.31 0.83,1004.37 1.56,2008.85 3.23,3013.23 0,39.9 -12.19,64.06 -46.35,89.37 -298.44,220.31 -594.58,443.75 -894.48,668.44 -38.23,-29.06 -65.83,-56.87 -65.73,-113.23 2.81,-1217.81 3.33,-2435.63 4.37,-3653.44 0,-19.27 0,-38.44 0,-64.69l0 0z"/>
    <path id="svg_12" class="fil3" d="M4896.56 4464.48l0 -2488.85 999.17 0 0 2162.81c-51.04,-54.58 -98.02,-104.48 -144.37,-154.79 -10,-10.94 -18.44,-23.33 -27.08,-35.42 -36.04,-50.31 -63.44,-43.65 -111.98,-3.75 -121.98,100.21 -252.5,190.52 -380.83,283.23 -109.06,78.85 -219.69,155.42 -335,236.87l0.1 -0.1 0 0z"/>
    <path id="svg_13" class="fil4" d="M3555 3113.75l994.48 0c0,25.83 0,48.75 0,71.67 0.31,489.37 0.42,978.75 1.56,1468.02 0.21,69.27 -25.42,95.31 -188.85,156.04 -289.06,107.29 -533.96,299.58 -721.87,541.56 -27.29,35.21 -45.31,41.15 -85.31,65l0 -2302.4 0 0.1 -0 0z"/>
    <path id="svg_14" class="fil1" d="M7388.75 1948.85c357.29,270.21 631.87,585.42 822.19,976.77 -129.48,16.25 -250.52,33.23 -372.08,44.9 -18.85,1.77 -49.17,-16.25 -58.96,-33.54 -102.19,-179.17 -211.35,-352.81 -351.46,-506.77 -24.06,-26.46 -36.56,-71.35 -38.02,-108.44 -4.69,-118.33 -1.77,-236.98 -1.77,-372.92l0.1 0 -0 0z"/>
    <path id="svg_15" class="fil1" d="M7401.04 1575.21c264.58,227.4 508.44,472.5 691.87,769.27 105.52,170.94 100.73,172.6 95.21,177.5 -44.48,-51.98 -197.81,-269.9 -246.04,-318.23 -137.5,-137.6 -276.87,-273.54 -417.71,-407.71 0,0 -33.33,-31.77 -110.73,-83.44 -35.94,-23.96 -22.81,-87.81 -32.71,-132.81 6.67,-1.56 13.33,-3.02 20,-4.58l0.1 0 0 -0z"/>
   </g>
  </g>
 </g>
</svg>
