<?xml version="1.0" encoding="UTF-8"?>
<!DOCTYPE svg PUBLIC "-//W3C//DTD SVG 1.1//EN" "http://www.w3.org/Graphics/SVG/1.1/DTD/svg11.dtd">
<!-- Creator: CorelDRAW -->
<svg xmlns="http://www.w3.org/2000/svg" xml:space="preserve" width="8in" height="3in" version="1.1" style="shape-rendering:geometricPrecision; text-rendering:geometricPrecision; image-rendering:optimizeQuality; fill-rule:evenodd; clip-rule:evenodd"
viewBox="0 0 8000 3000"
 xmlns:xlink="http://www.w3.org/1999/xlink"
 xmlns:xodm="http://www.corel.com/coreldraw/odm/2003"
 xmlns:svg="http://www.w3.org/2000/svg"
 data-name="Camada 1">
 <defs>
  <style type="text/css">
   <![CDATA[
    .fil1 {fill:#009A57;fill-rule:nonzero}
    .fil4 {fill:#303458;fill-rule:nonzero}
    .fil0 {fill:#303558;fill-rule:nonzero}
    .fil2 {fill:#384782;fill-rule:nonzero}
    .fil3 {fill:#F6E529;fill-rule:nonzero}
   ]]>
  </style>
 </defs>
 <g id="Layer_x0020_1">
  <metadata id="CorelCorpID_0Corel-Layer"/>
  <g id="_540607752">
   <g id="svg_1">
    <path id="svg_2" class="fil0" d="M2095.07 274.8l0 105.25c-532.77,-36.56 -926.87,173.41 -1185.15,630.71 2.61,3.14 4.96,6.52 7.57,9.66 5.74,-6.01 12.79,-11.23 16.71,-18.02 57.98,-101.07 132.15,-189.86 219.9,-266.39 133.19,-116.22 286.23,-197.96 458.6,-242.35 57.46,-14.89 117,-23.77 176.02,-31.59 48.05,-6.53 96.89,-10.44 145.2,-9.92 52.24,0.78 104.21,8.36 156.96,12.79l0 84.1c-85.13,-21.68 -171.06,-31.08 -257.51,-29.77 -101.59,1.57 -201.87,15.68 -299.81,45.44 -125.36,38.13 -240.53,96.11 -341.61,177.59 -106.3,85.4 -194.83,186.47 -259.07,307.91 -48.05,90.62 -81.48,185.69 -101.33,285.19 -7.84,39.7 -9.14,80.7 -11.24,121.44 -5.22,99.76 3.14,200.31 28.47,297.2 55.11,209.46 167.93,372.68 324.36,504.57 139.72,117.52 300.86,191.43 480.28,223.03 76.78,13.58 156.7,18.55 234.78,15.41 168.71,-6.52 327.5,-51.44 475.06,-135.28 96.63,-54.84 182.02,-122.48 254.89,-204.22 114.39,-127.7 193.52,-274.74 226.17,-443.45 10.71,-54.84 13.31,-111.25 21.94,-166.62 2.09,-13.31 11.49,-27.94 21.94,-36.83 30.81,-25.85 63.98,-49.1 97.67,-74.69 35.52,28.21 61.11,60.06 52.24,110.21 -11.49,65.81 -16.19,132.93 -31.59,197.7 -32.39,135.28 -94.02,257.76 -178.12,369.28 -89.84,119.09 -201.09,214.68 -330.37,288.58 -109.17,62.42 -225.65,109.43 -351,129.28 -77.04,12.28 -155.65,23.77 -233.48,23.77 -170.28,-0.26 -333.77,-35.78 -488.89,-108.65 -97.94,-45.96 -186.47,-104.2 -268.47,-174.2 -92.97,-79.66 -168.45,-172.63 -228.52,-278.13 -15.68,-27.42 -28.72,-56.41 -43.35,-84.62 -3.65,-6.79 -9.14,-12.28 -15.67,-16.98 151.73,446.32 607.98,779.05 1136.58,749.28 578.47,-32.91 1020.62,-468.79 1080.17,-1021.92 24.02,96.63 -83.31,420.73 -198.48,595.19 -120.39,182.29 -277.35,326.45 -471.39,430.13 -515.54,274.74 -1167.65,178.11 -1576.38,-270.3 -386.26,-423.87 -444.76,-1051.96 -130.32,-1539.28 334.29,-517.11 921.38,-672.76 1386.25,-560.46l0.01 -0.03z"/>
    <path id="svg_3" class="fil0" d="M2789.76 1134.55c140.24,-16.46 280.75,-33.17 426.47,-50.14 -40.48,124.83 -79.91,247.06 -119.61,370.33 -35.78,-33.96 -68.69,-64.5 -103.16,-97.16 -42.57,32.91 -85.13,65.55 -127.45,98.46 -96.37,75.21 -192.21,150.95 -288.58,225.64 -17.23,13.32 -26.9,26.12 -26.64,49.89 1.57,127.7 1.04,255.41 0.26,382.86 0,9.67 -3.4,22.46 -10.19,28.99 -108.9,107.07 -235.56,186.73 -380.77,237.13 -3.14,1.05 -6.79,0.78 -13.58,1.3l0 -27.94c0,-114.65 -0.52,-229.3 0.52,-343.96 0,-14.36 -7.57,-27.42 -19.85,-34.99 -33.69,-20.63 -66.6,-43.09 -103.43,-67.12l0 507.44c-138.15,24.81 -272.66,19.33 -407.41,-15.15l0 -454.94c-40.75,32.12 -78.09,60.85 -114.13,91.15 -6.27,5.22 -8.09,18.02 -8.09,27.42 -0.52,88.53 -0.26,177.07 -0.26,265.6 0,8.36 0,16.46 0,28.99 -145.46,-60.06 -265.34,-148.6 -370.33,-261.95 267.17,-190.91 533.29,-381.04 801.24,-572.47 79.91,88 159.84,176.02 241.32,265.87 40.48,-29.77 80.7,-59.28 120.92,-89.06 177.33,-131.88 354.65,-264.03 532.25,-395.4 13.58,-9.92 19.58,-17.24 13.31,-35.26 -15.41,-43.35 -27.94,-87.75 -42.57,-135.54l-0.26 0 0.01 0z"/>
    <path id="svg_4" class="fil1" d="M2152.78 201.68l394.35 0c0,7.84 0,15.68 0,23.77 0.26,396.44 0.52,793.15 1.3,1189.59 0,15.67 -4.7,25.33 -18.28,35.26 -117.79,86.97 -234.79,175.24 -353.09,263.78 -15.15,-11.49 -25.85,-22.46 -25.85,-44.65 1.05,-480.8 1.3,-961.6 1.83,-1442.14 0,-7.57 0,-15.15 0,-25.59l-0.26 0 0 -0.01z"/>
    <path id="svg_5" class="fil2" d="M1623.68 1669.67l0 -982.49 394.35 0 0 853.74c-20.11,-21.68 -38.65,-41.26 -56.93,-61.11 -3.92,-4.17 -7.31,-9.14 -10.71,-14.11 -14.11,-19.85 -25.07,-17.23 -44.13,-1.57 -48.05,39.7 -99.76,75.21 -150.43,111.78 -43.09,31.08 -86.7,61.37 -132.15,93.49l0 0.26 0 0.01z"/>
    <path id="svg_6" class="fil3" d="M1094.04 1136.64l392.53 0c0,10.19 0,19.33 0,28.21 0,193.26 0,386.26 0.52,579.52 0,27.42 -9.92,37.61 -74.44,61.63 -114.12,42.31 -210.76,118.31 -284.93,213.89 -10.71,13.84 -18.02,16.19 -33.69,25.6l0 -908.85z"/>
    <path id="svg_7" class="fil0" d="M2607.47 676.72c141.03,106.56 249.41,231.13 324.63,385.74 -51.19,6.52 -98.98,13.06 -146.78,17.76 -7.57,0.78 -19.33,-6.53 -23.24,-13.32 -40.48,-70.77 -83.57,-139.2 -138.67,-200.05 -9.41,-10.44 -14.36,-28.21 -14.89,-42.83 -1.82,-46.75 -0.78,-93.49 -0.78,-147.3l-0.26 0 -0.01 0z"/>
    <path id="svg_8" class="fil0" d="M2612.43 529.17c104.46,89.84 200.83,186.46 273.17,303.73 41.53,67.38 39.7,68.17 37.61,70 -17.5,-20.63 -78.09,-106.56 -97.16,-125.62 -54.31,-54.31 -109.17,-107.85 -164.79,-160.87 0,0 -13.06,-12.54 -43.62,-32.91 -14.1,-9.41 -9.14,-34.74 -12.79,-52.49 2.62,-0.52 5.22,-1.3 7.84,-1.83l-0.26 0 0 -0.01z"/>
   </g>
   <g id="svg_65">
    <path id="svg_66" class="fil4" d="M3979.1 1047.05c34.48,4.44 61.9,10.44 82.53,17.76 6.27,1.83 10.44,4.17 12.28,6.79 1.83,2.61 3.14,7.31 3.65,14.1l13.84 126.41c0,1.83 -1.82,3.14 -5.22,3.65 -3.65,0.52 -6.01,-0.26 -7.57,-2.62 -19.85,-49.62 -48.31,-87.75 -85.13,-114.12 -36.83,-26.37 -81.22,-39.7 -133.2,-39.7 -48.31,0 -91.4,10.96 -129.53,33.17 -38.13,22.2 -67.9,53.8 -89.57,95.06 -21.68,41.26 -32.39,89.58 -32.39,144.69 0,55.11 11.23,104.73 33.69,147.04 22.45,42.05 53.28,74.69 92.71,97.41 39.43,22.72 84.62,34.21 135.8,34.21 51.18,0 90.1,-11.49 123.53,-34.21 33.43,-22.72 65.03,-60.06 94.8,-112.3 0.78,-1.83 2.87,-2.35 6.53,-1.83 3.65,0.52 5.22,1.83 5.22,3.65l-15.93 112.82c-1.3,7.31 -2.87,12.01 -4.17,14.1 -1.3,2.09 -5.22,4.44 -11.76,6.79 -65.3,20.11 -131.37,30.04 -198.22,30.04 -75.99,0 -143.91,-12.28 -203.97,-36.83 -60.06,-24.55 -107.07,-59.03 -141.29,-103.16 -34.21,-44.13 -51.19,-94.54 -51.19,-150.95 0,-56.41 17.5,-108.9 52.76,-154.08 35.26,-45.18 83.57,-80.43 144.94,-106.03 61.37,-25.59 129.8,-38.13 205.01,-38.13 33.43,0 67.38,2.35 101.86,6.79l0 -0.52z"/>
    <path id="svg_67" class="fil4" d="M4388.33 1590.28c-51.44,-26.37 -91.4,-62.15 -119.35,-107.33 -27.94,-45.18 -42.05,-94.54 -42.05,-147.81 0,-62.42 18.55,-115.96 55.36,-160.62 36.83,-44.65 84.35,-78.09 142.33,-100.54 57.98,-22.45 117,-33.69 177.33,-33.69 67.38,0 126.66,13.58 177.85,40.48 51.19,26.9 90.37,62.68 117.79,106.81 27.42,44.4 41,91.41 41,141.04 0,55.11 -16.98,105.77 -51.19,152 -34.21,46.22 -79.66,82.53 -136.85,109.17 -57.19,26.64 -119.09,39.96 -185.94,39.96 -66.85,0 -124.83,-13.06 -176.28,-39.7l0 0.26 -0.01 -0.01zm318.36 -12.8c31.6,-19.58 56.41,-48.57 73.91,-86.44 17.76,-37.87 26.64,-83.31 26.64,-136.07 0,-55.89 -9.92,-105.78 -29.77,-149.65 -19.85,-43.88 -48.57,-78.35 -86.18,-103.16 -37.61,-24.81 -81.74,-37.35 -132.15,-37.35 -64.77,0 -114.39,20.9 -149.13,62.43 -34.73,41.52 -52.23,99.5 -52.23,174.2 0,58.76 10.44,111.52 31.34,157.74 20.89,46.49 49.62,82.53 86.18,108.65 36.56,26.12 77.83,39.18 124.06,39.18 39.7,0 75.47,-9.92 107.07,-29.52l0.26 0z"/>
    <path id="svg_68" class="fil4" d="M5283.85 1619.78c-11.23,-0.52 -25.33,-1.3 -42.05,-1.83 -16.71,-0.52 -35.26,-1.05 -55.89,-1.05l-78.87 1.05c-14.11,0.52 -33.43,0.78 -57.46,0.78 -1.57,0 -2.09,-1.83 -2.09,-5.49 0,-3.66 0.78,-5.49 2.09,-5.49 22.72,0 39.43,-1.57 50.15,-4.44 10.71,-3.14 18.02,-8.88 21.94,-17.76 3.92,-8.89 5.74,-22.2 5.74,-40.48l0 -421.25c0,-18.28 -2.09,-31.59 -5.74,-39.96 -3.92,-8.36 -10.96,-14.36 -21.42,-17.76 -10.19,-3.4 -26.38,-4.96 -48.57,-4.96 -2.09,0 -3.14,-1.83 -3.14,-5.49 0,-3.66 1.04,-5.49 3.14,-5.49l56.41 0.78c32.64,1.3 58.5,1.83 77.83,1.83 29.25,0 59.03,-1.05 89.58,-2.62 36.83,-1.3 61.9,-1.83 74.69,-1.83 71.82,0 135.54,12.02 191.18,36.31 55.63,24.29 98.98,57.19 129.53,99.24 30.56,41.78 45.7,88.8 45.7,141.03 0,58.76 -15.93,110.73 -47.53,155.92 -31.59,45.18 -74.17,80.18 -127.97,104.73 -53.54,24.55 -112.3,36.83 -176.28,36.83 -22.72,0 -49.62,-0.78 -80.96,-2.61l-0.01 0.01zm190.65 -47.78c34.74,-19.58 61.9,-49.1 81.48,-87.75 19.58,-38.91 29.25,-85.13 29.25,-139.2 0,-54.06 -9.14,-98.46 -27.69,-140.51 -18.55,-42.05 -44.65,-75.47 -78.87,-99.5 -34.21,-24.3 -73.65,-36.31 -118.31,-36.31 -44.67,0 -74.17,3.65 -90.62,10.97 -16.45,7.31 -24.55,22.72 -24.55,46.49l0 409.24c0,24.29 7.57,41.26 22.45,51.44 14.89,9.92 43.62,14.89 86.18,14.89 45.44,0 85.66,-9.92 120.39,-29.51l0.26 -0.26 0.02 0.01z"/>
    <path id="svg_69" class="fil4" d="M6327.98 1472.49c2.09,0 4.17,0.52 5.74,1.3 1.83,0.78 2.61,1.57 2.61,2.35 -7.05,47.27 -10.71,90.37 -10.71,129.28 0,4.96 -1.05,8.36 -3.14,10.44 -2.09,2.09 -6.27,3.14 -12.79,3.14l-470.87 0c-2.09,0 -3.14,-1.83 -3.14,-5.49 0,-3.66 1.05,-5.49 3.14,-5.49 22.72,0 39.18,-1.57 49.62,-4.44 10.19,-3.14 17.23,-8.89 20.89,-17.76 3.65,-8.88 5.22,-22.2 5.22,-40.48l0 -421.25c0,-18.28 -1.83,-31.6 -5.22,-39.96 -3.65,-8.36 -10.71,-14.36 -21.42,-17.76 -10.71,-3.39 -26.9,-4.96 -49.1,-4.96 -2.09,0 -3.14,-1.82 -3.14,-5.49 0,-3.66 1.05,-5.49 3.14,-5.49l451.81 0c7.05,0 10.71,2.62 10.71,8.09l2.09 120.92c0,0 -2.09,2.09 -5.74,2.61 -3.92,0.52 -6.27,0 -7.05,-1.82 -11.49,-35.26 -30.56,-61.38 -57.46,-78.35 -26.9,-16.98 -62.43,-25.59 -106.56,-25.59l-31.86 0c-21.42,0 -36.83,3.92 -46.75,11.76 -9.92,7.83 -14.89,20.11 -14.89,36.3l0 185.69 88.53 0c41.26,0 72.87,-6.01 94.8,-18.28 21.94,-12.01 32.91,-28.99 32.91,-50.92 0,-1.83 1.83,-2.61 5.75,-2.61 3.92,0 5.74,0.78 5.74,2.61l-1.05 81.74 1.05 43.62c1.3,20.63 2.09,37.08 2.09,49.09 0,1.3 -2.09,1.83 -6.52,1.83 -4.43,0 -6.27,-0.52 -6.27,-1.83 0,-24.81 -11.23,-44.4 -33.69,-58.76 -22.46,-14.36 -54.59,-21.42 -96.37,-21.42l-87.5 0 0 205.54c0,17.5 3.92,30.56 11.76,39.18 7.84,8.62 20.11,12.79 37.35,12.79l35.26 0c55.37,0 99.76,-9.66 133.19,-28.99 33.43,-19.33 57.98,-49.36 73.39,-90.1 0,-1.3 1.3,-1.83 4.18,-1.83l0.26 0.78 -0.02 0.01z"/>
    <path id="svg_70" class="fil4" d="M6615 1200.35c13.06,16.98 29.25,31.86 48.57,44.65 19.33,12.8 45.18,28.21 77.83,46.49 35.52,19.33 63.98,36.3 85.14,50.93 21.42,14.63 39.43,32.39 54.31,53.28 14.89,20.9 22.46,44.92 22.46,72.34 0,31.59 -9.92,59.55 -29.77,84.1 -19.85,24.55 -47.53,43.62 -82.53,57.19 -35.26,13.58 -74.43,20.37 -117.78,20.37 -31.87,0 -65.3,-3.92 -100.03,-11.49 -34.74,-7.57 -58.24,-15.93 -70.25,-25.07 -3.65,-2.35 -6.27,-4.7 -8.09,-6.79 -1.83,-2.09 -2.62,-5.49 -2.62,-10.44l-3.14 -144.69 0 -0.78c0,-2.35 1.83,-3.65 5.22,-4.17 3.65,-0.26 5.75,0.78 6.53,3.14 21.42,37.08 39.96,67.12 55.89,90.1 15.93,22.98 36.3,43.35 60.85,60.85 24.55,17.5 52.24,26.37 83.57,26.37 28.46,0 51.97,-6.52 70.25,-19.58 18.55,-13.06 27.69,-35.26 27.69,-66.85 0,-26.64 -7.05,-50.14 -20.9,-69.99 -13.84,-20.11 -30.81,-37.09 -50.67,-50.93 -19.85,-13.84 -47.27,-30.56 -82.01,-50.14 -34.21,-18.8 -60.58,-34.74 -79.39,-48.32 -18.8,-13.31 -34.99,-29.51 -48.57,-48.31 -13.58,-18.8 -20.11,-41 -20.11,-66.33 0,-32.12 10.71,-59.28 32.39,-81.48 21.67,-22.2 49.62,-38.39 83.57,-49.09 34.21,-10.71 69.99,-15.93 107.6,-15.93 24.81,0 50.14,2.09 75.74,6.01 25.59,3.92 46.22,8.62 61.9,14.11 6.52,2.35 10.71,4.96 12.79,7.83 2.09,2.62 3.14,6.27 3.14,10.44l0 133.72c0,1.83 -1.82,3.14 -5.22,4.18 -3.65,0.78 -5.74,0.52 -6.52,-1.3l-8.62 -17.23c-17.76,-38.13 -38.65,-70.78 -62.42,-97.42 -23.77,-26.64 -56.93,-39.96 -99.51,-39.96 -28.46,0 -51.71,7.05 -69.72,20.9 -18.02,13.84 -27.17,34.21 -27.17,60.85 0,21.94 6.52,41.26 19.58,58.24l0 0.26 0.01 -0.04z"/>
    <path id="svg_71" class="fil4" d="M7493.54 1179.47c0,0 -2.09,2.09 -5.74,2.61 -3.92,0.52 -6.27,0 -7.05,-1.82 -11.49,-35.26 -30.56,-61.38 -57.46,-78.35 -26.9,-16.98 -62.43,-25.59 -106.56,-25.59l-31.86 0c-21.42,0 -36.83,3.92 -46.75,11.76 -9.92,7.83 -14.89,20.11 -14.89,36.3l0 196.4 76.78 0c41.26,0 72.6,-6.27 94.28,-18.55 21.68,-12.54 32.64,-29.51 32.64,-51.44 0,-1.3 2.09,-1.83 6.27,-1.83 4.18,0 6.53,0.52 6.53,1.83l-1.05 82.78c0,19.33 0.26,33.96 1.05,43.62l1.04 48.32c0,1.83 -2.09,2.61 -6.52,2.61 -4.43,0 -6.52,-0.78 -6.52,-2.61 0,-24.29 -11.23,-43.62 -33.69,-57.72 -22.46,-14.1 -54.06,-21.42 -95.32,-21.42l-75.74 0 0 194.56c0,18.81 2.87,32.65 8.62,41.78 5.74,9.14 16.45,15.41 31.86,19.06 15.67,3.65 40.22,5.49 73.39,5.49 1.3,0 2.09,1.83 2.09,5.49 0,3.67 -0.78,5.49 -2.09,5.49 -29.24,0 -51.97,-0.26 -68.17,-0.78l-108.65 -1.04 -79.91 1.04c-14.11,0.52 -33.69,0.78 -58.5,0.78 -2.09,0 -3.14,-1.82 -3.14,-5.49 0,-3.66 1.04,-5.49 3.14,-5.49 24.81,0 43.09,-1.57 54.32,-4.44 11.23,-3.14 19.06,-8.88 22.98,-17.76 3.92,-8.89 5.74,-22.2 5.74,-40.48l0 -421.25c0,-18.28 -1.83,-31.59 -5.22,-39.96 -3.65,-8.36 -10.71,-14.36 -21.42,-17.76 -10.71,-3.4 -26.9,-4.96 -49.1,-4.96 -2.09,0 -3.14,-1.83 -3.14,-5.49 0,-3.66 1.05,-5.49 3.14,-5.49l451.81 0c7.05,0 10.71,2.61 10.71,8.09l2.09 120.91 0 0.78 0 0.01z"/>
   </g>
  </g>
 </g>
</svg>
