<?xml version="1.0" encoding="UTF-8"?>
<!DOCTYPE svg PUBLIC "-//W3C//DTD SVG 1.1//EN" "http://www.w3.org/Graphics/SVG/1.1/DTD/svg11.dtd">
<!-- Creator: CorelDRAW -->
<svg xmlns="http://www.w3.org/2000/svg" xml:space="preserve" width="100%" height="100%" version="1.1" style="shape-rendering:geometricPrecision; text-rendering:geometricPrecision; image-rendering:optimizeQuality; fill-rule:evenodd; clip-rule:evenodd"
viewBox="0 0 7333.33 7333.33"
 xmlns:xlink="http://www.w3.org/1999/xlink"
 xmlns:xodm="http://www.corel.com/coreldraw/odm/2003"
 xmlns:svg="http://www.w3.org/2000/svg"
 data-name="Camada 1">
 <defs>
  <style type="text/css">
   <![CDATA[
    .fil1 {fill:#009A57;fill-rule:nonzero}
    .fil0 {fill:#303558;fill-rule:nonzero}
    .fil2 {fill:#384782;fill-rule:nonzero}
    .fil3 {fill:#F6E529;fill-rule:nonzero}
   ]]>
  </style>
 </defs>
 <g id="Layer_x0020_1">
  <metadata id="CorelCorpID_0Corel-Layer"/>
  <g id="_500140696">
   <g id="svg_8">
    <path id="svg_9" class="fil0" d="M4257.58 564.02l0 266.56c-1349.48,-92.92 -2347.71,439.48 -3002.19,1597.6 6.35,8.13 12.6,16.25 18.96,24.37 14.37,-15.1 32.6,-28.23 42.6,-45.73 147.08,-256.04 334.9,-480.83 556.98,-674.79 337.19,-294.58 725.31,-501.67 1161.67,-613.85 145.83,-37.5 296.25,-60.21 445.83,-80.31 121.56,-16.25 245.31,-26.56 367.81,-24.79 132.19,1.87 264.17,20.83 397.5,32.5l0 212.92c-215.94,-54.9 -433.44,-79.06 -652.4,-75.63 -257.6,4.06 -511.67,39.69 -759.27,115.21 -317.19,96.67 -609.17,243.65 -865.63,449.69 -269.06,216.25 -493.23,472.29 -655.94,779.69 -121.46,229.48 -206.46,470.1 -256.77,722.29 -20,100.42 -23.13,204.37 -28.44,307.4 -13.02,253.02 7.92,507.5 72.4,752.71 139.58,530.83 425.42,944.06 821.77,1277.81 353.85,298.02 761.98,485 1216.67,564.69 194.79,34.17 397.29,47.08 595,39.27 427.4,-16.77 829.37,-130.21 1203.65,-342.81 244.9,-139.06 460.83,-310.42 645.94,-517.4 289.48,-323.75 490.42,-695.83 573.23,-1123.13 26.98,-139.06 33.44,-281.87 55.52,-422.08 5.31,-33.54 28.96,-70.83 55.63,-93.23 78.23,-65.63 162.29,-124.58 247.6,-188.96 90,71.25 154.9,151.87 132.4,279.37 -29.37,166.56 -41.04,336.87 -80.31,500.94 -81.98,342.4 -238.23,652.71 -451.35,935.21 -227.5,301.56 -509.58,543.65 -837.08,731.35 -276.25,158.44 -571.67,277.08 -888.96,327.29 -195.52,30.94 -394.06,60.31 -591.25,59.9 -431.35,-0.83 -845.73,-90.31 -1238.33,-275 -248.02,-116.67 -472.4,-263.96 -679.79,-441.35 -235.73,-201.56 -426.67,-437.08 -578.85,-704.37 -39.69,-69.69 -72.6,-143.02 -109.9,-214.06 -8.96,-16.98 -23.02,-31.46 -39.48,-43.33 384.17,1130.31 1539.9,1973.65 2879.37,1897.71 1465.1,-83.02 2585.52,-1187.71 2736.46,-2588.96 60.73,244.48 -210.94,1065.94 -502.81,1507.5 -305.1,461.67 -702.29,827.29 -1194.17,1089.48 -1305.83,696.04 -2957.81,451.46 -3992.92,-684.37 -978.75,-1073.96 -1126.87,-2664.9 -330.42,-3899.17 844.58,-1308.75 2331.67,-1702.5 3508.96,-1418.54l0.31 0.42 0.02 -0.01z"/>
    <path id="svg_10" class="fil0" d="M6017.37 2742.45c355,-41.77 711.25,-83.75 1080.21,-127.19 -102.29,316.35 -202.19,625.52 -303.13,937.81 -90.94,-85.73 -173.75,-163.65 -261.25,-246.04 -108.13,83.54 -215.73,165.94 -322.5,249.48 -243.85,190.52 -486.67,382.29 -731.35,571.77 -43.44,33.65 -67.92,66.04 -67.19,126.46 3.96,323.33 2.5,646.77 0.73,970.21 -0.1,24.79 -8.85,56.56 -25.73,73.13 -275.63,271.56 -596.77,472.71 -964.27,600.94 -7.81,2.71 -16.98,1.87 -34.37,3.54l0 -70.52c0,-290.42 -1.04,-580.94 1.04,-871.35 0.31,-36.35 -19.06,-69.69 -50.31,-88.85 -85.63,-52.29 -168.44,-108.96 -261.87,-170l0 1285.1c-349.69,62.71 -690.42,48.96 -1032.08,-38.54l0 -1152.5c-102.92,81.35 -198.13,153.96 -289.27,231.15 -15.73,13.33 -20.52,45.83 -20.73,69.58 -1.46,224.17 -0.83,448.44 -0.83,672.71 0,20.94 0,41.77 0,73.33 -368.65,-152.5 -672.19,-376.77 -938.02,-663.85 676.67,-483.54 1351.25,-965.52 2029.48,-1450.21 202.5,223.02 404.69,445.83 611.35,673.54 102.5,-75.52 204.58,-150 306.04,-225.42 449.37,-334.06 898.13,-668.85 1348.33,-1001.87 34.17,-25.31 49.37,-43.96 33.44,-88.96 -38.85,-110 -70.52,-222.6 -107.92,-343.44l0.21 0 -0 0z"/>
    <path id="svg_11" class="fil1" d="M4403.73 378.81l998.96 0c0,19.58 0,39.9 0,60.31 0.83,1004.37 1.56,2008.85 3.23,3013.23 0,39.9 -12.19,64.06 -46.35,89.37 -298.44,220.31 -594.58,443.75 -894.48,668.44 -38.23,-29.06 -65.83,-56.87 -65.73,-113.23 2.81,-1217.81 3.33,-2435.63 4.37,-3653.44 0,-19.27 0,-38.44 0,-64.69l0 0z"/>
    <path id="svg_12" class="fil2" d="M3063.42 4097.97l0 -2488.85 999.17 0 0 2162.81c-51.04,-54.58 -98.02,-104.48 -144.37,-154.79 -10,-10.94 -18.44,-23.33 -27.08,-35.42 -36.04,-50.31 -63.44,-43.65 -111.98,-3.75 -121.98,100.21 -252.5,190.52 -380.83,283.23 -109.06,78.85 -219.69,155.42 -335,236.87l0.1 -0.1 0 0z"/>
    <path id="svg_13" class="fil3" d="M1721.85 2747.24l994.48 0c0,25.83 0,48.75 0,71.67 0.31,489.37 0.42,978.75 1.56,1468.02 0.21,69.27 -25.42,95.31 -188.85,156.04 -289.06,107.29 -533.96,299.58 -721.87,541.56 -27.29,35.21 -45.31,41.15 -85.31,65l0 -2302.4 0 0.1 -0 0z"/>
    <path id="svg_14" class="fil0" d="M5555.61 1582.35c357.29,270.21 631.87,585.42 822.19,976.77 -129.48,16.25 -250.52,33.23 -372.08,44.9 -18.85,1.77 -49.17,-16.25 -58.96,-33.54 -102.19,-179.17 -211.35,-352.81 -351.46,-506.77 -24.06,-26.46 -36.56,-71.35 -38.02,-108.44 -4.69,-118.33 -1.77,-236.98 -1.77,-372.92l0.1 0 -0 0z"/>
    <path id="svg_15" class="fil0" d="M5567.9 1208.7c264.58,227.4 508.44,472.5 691.87,769.27 105.52,170.94 100.73,172.6 95.21,177.5 -44.48,-51.98 -197.81,-269.9 -246.04,-318.23 -137.5,-137.6 -276.87,-273.54 -417.71,-407.71 0,0 -33.33,-31.77 -110.73,-83.44 -35.94,-23.96 -22.81,-87.81 -32.71,-132.81 6.67,-1.56 13.33,-3.02 20,-4.58l0.1 0 0 -0z"/>
   </g>
  </g>
 </g>
</svg>
