<?xml version="1.0" encoding="UTF-8"?>
<svg id="Camada_1" data-name="Camada 1" xmlns="http://www.w3.org/2000/svg" version="1.1" viewBox="0 0 1200 1200">
  <defs>
    <style>
      .cls-1 {
        fill: #009a57;
      }

      .cls-1, .cls-2, .cls-3, .cls-4, .cls-5, .cls-6 {
        stroke-width: 0px;
      }

      .cls-2 {
        fill: #384782;
      }

      .cls-3 {
        fill: #303458;
      }

      .cls-4 {
        fill: #f6e529;
      }

      .cls-5 {
        fill: #303558;
      }

      .cls-6 {
        fill: #878787;
      }
    </style>
  </defs>
  <g>
    <path class="cls-3" d="M234.02,729.37c8.38,1.11,15.07,2.54,20.08,4.31,1.55.44,2.55,1,2.98,1.66.43.66.73,1.81.91,3.43l3.37,30.75c0,.44-.43.74-1.3.88-.87.15-1.47-.07-1.81-.66-4.84-12.09-11.75-21.35-20.73-27.76-8.98-6.42-19.78-9.62-32.39-9.62-11.75,0-22.24,2.69-31.48,8.07-9.24,5.39-16.5,13.09-21.77,23.12-5.27,10.03-7.9,21.76-7.9,35.17s2.72,25.48,8.16,35.73c5.44,10.25,12.96,18.14,22.54,23.67,9.59,5.53,20.6,8.3,33.04,8.3s21.94-2.76,30.06-8.3c8.12-5.53,15.81-14.63,23.06-27.32.17-.44.69-.59,1.55-.44.86.15,1.3.44,1.3.89l-3.89,27.43c-.35,1.77-.69,2.91-1.04,3.43-.35.52-1.3,1.07-2.85,1.66-15.89,4.87-31.96,7.3-48.19,7.3-18.49,0-35.02-2.99-49.62-8.96-14.6-5.97-26.04-14.34-34.33-25.11-8.29-10.76-12.44-23.01-12.44-36.72s4.27-26.51,12.83-37.5c8.55-10.99,20.29-19.58,35.24-25.77,14.94-6.19,31.57-9.29,49.88-9.29,8.12,0,16.36.55,24.74,1.66Z"/>
    <path class="cls-3" d="M333.52,861.44c-12.53-6.42-22.2-15.12-29.02-26.1-6.83-10.98-10.23-22.97-10.23-35.95,0-15.19,4.49-28.21,13.47-39.05,8.98-10.84,20.51-18.99,34.59-24.45,14.08-5.45,28.46-8.18,43.14-8.18,16.41,0,30.83,3.28,43.27,9.84,12.44,6.56,21.98,15.23,28.63,25.99,6.65,10.77,9.98,22.2,9.98,34.29,0,13.42-4.15,25.74-12.44,36.94-8.29,11.21-19.39,20.06-33.29,26.55-13.91,6.49-28.98,9.73-45.21,9.73s-30.36-3.21-42.88-9.62ZM410.99,858.34c7.68-4.79,13.69-11.8,18.01-21.02,4.32-9.21,6.48-20.24,6.48-33.07,0-13.57-2.42-25.7-7.25-36.39-4.84-10.69-11.83-19.06-20.99-25.11-9.16-6.05-19.87-9.07-32.13-9.07-15.72,0-27.81,5.05-36.27,15.15-8.47,10.1-12.7,24.22-12.7,42.36,0,14.31,2.55,27.1,7.64,38.38,5.09,11.28,12.09,20.1,20.99,26.44,8.89,6.34,18.96,9.51,30.19,9.51,9.67,0,18.35-2.4,26.04-7.19Z"/>
    <path class="cls-3" d="M551.29,868.63c-2.77-.15-6.18-.29-10.23-.44-4.06-.14-8.6-.22-13.6-.22l-19.17.22c-3.46.15-8.12.22-13.99.22-.35,0-.52-.44-.52-1.33s.17-1.33.52-1.33c5.53,0,9.59-.37,12.18-1.11,2.59-.74,4.36-2.17,5.31-4.31.95-2.14,1.42-5.42,1.42-9.84v-102.43c0-4.42-.48-7.67-1.42-9.73-.95-2.06-2.68-3.5-5.18-4.31-2.51-.81-6.44-1.22-11.79-1.22-.52,0-.78-.44-.78-1.33s.26-1.33.78-1.33l13.73.22c7.94.3,14.25.44,18.91.44,7.08,0,14.34-.22,21.76-.66,8.98-.29,15.03-.44,18.14-.44,17.44,0,32.95,2.95,46.51,8.85,13.56,5.9,24.05,13.94,31.48,24.11,7.43,10.18,11.14,21.61,11.14,34.29,0,14.31-3.85,26.96-11.53,37.94-7.69,10.99-18.05,19.47-31.09,25.44-13.04,5.97-27.34,8.96-42.88,8.96-5.53,0-12.09-.22-19.69-.66ZM597.67,857.02c8.46-4.79,15.07-11.91,19.82-21.35,4.75-9.44,7.12-20.72,7.12-33.85s-2.25-23.93-6.74-34.18c-4.49-10.25-10.88-18.32-19.17-24.22-8.29-5.9-17.88-8.85-28.76-8.85s-18.05.88-22.02,2.65c-3.98,1.77-5.96,5.53-5.96,11.28v99.55c0,5.9,1.81,10.07,5.44,12.5,3.63,2.43,10.62,3.65,20.99,3.65,11.05,0,20.81-2.4,29.28-7.19Z"/>
    <path class="cls-3" d="M805.21,832.79c.52,0,.99.11,1.42.33.43.22.65.41.65.55-1.73,11.5-2.59,21.98-2.59,31.41,0,1.18-.26,2.03-.78,2.54-.52.52-1.55.77-3.11.77h-114.52c-.52,0-.78-.44-.78-1.33s.26-1.33.78-1.33c5.53,0,9.54-.37,12.05-1.11,2.5-.74,4.19-2.17,5.05-4.31.86-2.14,1.3-5.42,1.3-9.84v-102.43c0-4.42-.43-7.67-1.3-9.73-.87-2.06-2.59-3.5-5.18-4.31-2.59-.81-6.57-1.22-11.92-1.22-.52,0-.78-.44-.78-1.33s.26-1.33.78-1.33h109.86c1.72,0,2.59.66,2.59,1.99l.52,29.42c0,.3-.48.52-1.43.66-.95.15-1.51,0-1.68-.44-2.77-8.55-7.43-14.89-13.99-19.03-6.57-4.13-15.2-6.19-25.91-6.19h-7.77c-5.18,0-8.98.96-11.4,2.88-2.42,1.92-3.63,4.87-3.63,8.85v45.13h21.51c10.02,0,17.7-1.47,23.06-4.42,5.35-2.95,8.03-7.08,8.03-12.39,0-.44.47-.66,1.43-.66s1.42.22,1.42.66l-.26,19.91.26,10.62c.34,5.02.52,9,.52,11.95,0,.3-.52.44-1.55.44s-1.55-.14-1.55-.44c0-6.04-2.72-10.8-8.16-14.27-5.44-3.46-13.26-5.2-23.45-5.2h-21.25v50c0,4.28.95,7.45,2.85,9.51,1.9,2.07,4.92,3.1,9.07,3.1h8.55c13.47,0,24.27-2.36,32.39-7.08,8.12-4.72,14.08-12.02,17.88-21.9,0-.29.34-.44,1.04-.44Z"/>
    <path class="cls-3" d="M875.03,766.65c3.19,4.13,7.12,7.74,11.79,10.84,4.66,3.1,10.97,6.86,18.91,11.28,8.64,4.72,15.55,8.85,20.73,12.39,5.18,3.54,9.59,7.85,13.21,12.94,3.63,5.09,5.44,10.95,5.44,17.59,0,7.67-2.42,14.49-7.25,20.46-4.84,5.97-11.53,10.62-20.08,13.94-8.55,3.32-18.1,4.98-28.63,4.98-7.77,0-15.89-.92-24.36-2.76-8.46-1.84-14.17-3.87-17.1-6.08-.87-.59-1.51-1.14-1.94-1.66-.43-.51-.65-1.36-.65-2.54l-.78-35.17v-.22c0-.59.43-.92,1.29-1,.86-.07,1.38.19,1.55.77,5.18,9,9.72,16.3,13.6,21.9,3.89,5.61,8.81,10.55,14.77,14.82,5.96,4.28,12.74,6.42,20.34,6.42,6.91,0,12.61-1.58,17.1-4.76,4.49-3.17,6.74-8.59,6.74-16.26,0-6.49-1.68-12.17-5.05-17.03-3.37-4.87-7.47-8.99-12.31-12.39-4.84-3.39-11.49-7.45-19.95-12.17-8.29-4.57-14.73-8.48-19.3-11.72-4.58-3.24-8.51-7.15-11.79-11.72-3.28-4.57-4.92-9.96-4.92-16.15,0-7.82,2.63-14.41,7.9-19.8,5.27-5.38,12.05-9.36,20.34-11.95,8.29-2.58,17.01-3.87,26.17-3.87,6.04,0,12.18.48,18.4,1.44,6.22.96,11.23,2.1,15.03,3.43,1.55.59,2.59,1.22,3.11,1.88.52.66.78,1.51.78,2.54v32.52c0,.44-.43.77-1.3,1-.87.22-1.38.11-1.55-.33l-2.07-4.2c-4.32-9.29-9.37-17.18-15.16-23.67-5.79-6.49-13.86-9.73-24.23-9.73-6.91,0-12.57,1.7-16.97,5.09-4.41,3.39-6.61,8.33-6.61,14.82,0,5.31,1.59,10.03,4.79,14.16Z"/>
    <path class="cls-3" d="M1088.67,761.56c0,.3-.48.52-1.43.66-.95.15-1.51,0-1.68-.44-2.77-8.55-7.43-14.89-13.99-19.03-6.57-4.13-15.2-6.19-25.91-6.19h-7.77c-5.18,0-8.98.96-11.4,2.88-2.42,1.92-3.63,4.87-3.63,8.85v47.78h18.66c10.02,0,17.66-1.51,22.93-4.54,5.27-3.02,7.9-7.19,7.9-12.5,0-.29.52-.44,1.55-.44s1.55.15,1.55.44l-.26,20.13c0,4.72.08,8.26.26,10.62l.26,11.72c0,.44-.52.66-1.55.66s-1.55-.22-1.55-.66c0-5.9-2.72-10.58-8.16-14.05-5.44-3.46-13.17-5.2-23.19-5.2h-18.4v47.34c0,4.57.69,7.96,2.07,10.18,1.38,2.21,3.97,3.76,7.77,4.65,3.8.89,9.76,1.33,17.88,1.33.34,0,.52.44.52,1.33s-.17,1.33-.52,1.33c-7.08,0-12.61-.07-16.58-.22l-26.43-.22-19.43.22c-3.46.15-8.21.22-14.25.22-.52,0-.78-.44-.78-1.33s.26-1.33.78-1.33c6.04,0,10.45-.37,13.21-1.11,2.76-.74,4.62-2.17,5.57-4.31.95-2.14,1.42-5.42,1.42-9.84v-102.43c0-4.42-.43-7.67-1.3-9.73-.87-2.06-2.59-3.5-5.18-4.31-2.59-.81-6.57-1.22-11.92-1.22-.52,0-.78-.44-.78-1.33s.26-1.33.78-1.33h109.86c1.72,0,2.59.66,2.59,1.99l.52,29.42Z"/>
  </g>
  <g>
    <path class="cls-5" d="M656.71,71.95v25.59c-129.55-8.92-225.38,42.19-288.21,153.37.61.78,1.21,1.56,1.82,2.34,1.38-1.45,3.13-2.71,4.09-4.39,14.12-24.58,32.15-46.16,53.47-64.78,32.37-28.28,69.63-48.16,111.52-58.93,14-3.6,28.44-5.78,42.8-7.71,11.67-1.56,23.55-2.55,35.31-2.38,12.69.18,25.36,2,38.16,3.12v20.44c-20.73-5.27-41.61-7.59-62.63-7.26-24.73.39-49.12,3.81-72.89,11.06-30.45,9.28-58.48,23.39-83.1,43.17-25.83,20.76-47.35,45.34-62.97,74.85-11.66,22.03-19.82,45.13-24.65,69.34-1.92,9.64-2.22,19.62-2.73,29.51-1.25,24.29.76,48.72,6.95,72.26,13.4,50.96,40.84,90.63,78.89,122.67,33.97,28.61,73.15,46.56,116.8,54.21,18.7,3.28,38.14,4.52,57.12,3.77,41.03-1.61,79.62-12.5,115.55-32.91,23.51-13.35,44.24-29.8,62.01-49.67,27.79-31.08,47.08-66.8,55.03-107.82,2.59-13.35,3.21-27.06,5.33-40.52.51-3.22,2.78-6.8,5.34-8.95,7.51-6.3,15.58-11.96,23.77-18.14,8.64,6.84,14.87,14.58,12.71,26.82-2.82,15.99-3.94,32.34-7.71,48.09-7.87,32.87-22.87,62.66-43.33,89.78-21.84,28.95-48.92,52.19-80.36,70.21-26.52,15.21-54.88,26.6-85.34,31.42-18.77,2.97-37.83,5.79-56.76,5.75-41.41-.08-81.19-8.67-118.88-26.4-23.81-11.2-45.35-25.34-65.26-42.37-22.63-19.35-40.96-41.96-55.57-67.62-3.81-6.69-6.97-13.73-10.55-20.55-.86-1.63-2.21-3.02-3.79-4.16,36.88,108.51,147.83,189.47,276.42,182.18,140.65-7.97,248.21-114.02,262.7-248.54,5.83,23.47-20.25,102.33-48.27,144.72-29.29,44.32-67.42,79.42-114.64,104.59-125.36,66.82-283.95,43.34-383.32-65.7-93.96-103.1-108.18-255.83-31.72-374.32,81.08-125.64,223.84-163.44,336.86-136.18Z"/>
    <path class="cls-5" d="M825.65,281.08c34.08-4.01,68.28-8.04,103.7-12.21-9.82,30.37-19.41,60.05-29.1,90.03-8.73-8.23-16.68-15.71-25.08-23.62-10.38,8.02-20.71,15.93-30.96,23.95-23.41,18.29-46.72,36.7-70.21,54.89-4.17,3.23-6.52,6.34-6.45,12.14.38,31.04.24,62.09.07,93.14-.01,2.38-.85,5.43-2.47,7.02-26.46,26.07-57.29,45.38-92.57,57.69-.75.26-1.63.18-3.3.34v-6.77c0-27.88-.1-55.77.1-83.65.03-3.49-1.83-6.69-4.83-8.53-8.22-5.02-16.17-10.46-25.14-16.32v123.37c-33.57,6.02-66.28,4.7-99.08-3.7v-110.64c-9.88,7.81-19.02,14.78-27.77,22.19-1.51,1.28-1.97,4.4-1.99,6.68-.14,21.52-.08,43.05-.08,64.58,0,2.01,0,4.01,0,7.04-35.39-14.64-64.53-36.17-90.05-63.73,64.96-46.42,129.72-92.69,194.83-139.22,19.44,21.41,38.85,42.8,58.69,64.66,9.84-7.25,19.64-14.4,29.38-21.64,43.14-32.07,86.22-64.21,129.44-96.18,3.28-2.43,4.74-4.22,3.21-8.54-3.73-10.56-6.77-21.37-10.36-32.97Z"/>
    <path class="cls-1" d="M670.74,54.17h95.9c0,1.88,0,3.83,0,5.79.08,96.42.15,192.85.31,289.27,0,3.83-1.17,6.15-4.45,8.58-28.65,21.15-57.08,42.6-85.87,64.17-3.67-2.79-6.32-5.46-6.31-10.87.27-116.91.32-233.82.42-350.73,0-1.85,0-3.69,0-6.21Z"/>
    <path class="cls-2" d="M542.07,411.21v-238.93h95.92v207.63c-4.9-5.24-9.41-10.03-13.86-14.86-.96-1.05-1.77-2.24-2.6-3.4-3.46-4.83-6.09-4.19-10.75-.36-11.71,9.62-24.24,18.29-36.56,27.19-10.47,7.57-21.09,14.92-32.16,22.74Z"/>
    <path class="cls-4" d="M413.28,281.54h95.47c0,2.48,0,4.68,0,6.88.03,46.98.04,93.96.15,140.93.02,6.65-2.44,9.15-18.13,14.98-27.75,10.3-51.26,28.76-69.3,51.99-2.62,3.38-4.35,3.95-8.19,6.24v-221.03Z"/>
    <path class="cls-5" d="M781.32,169.71c34.3,25.94,60.66,56.2,78.93,93.77-12.43,1.56-24.05,3.19-35.72,4.31-1.81.17-4.72-1.56-5.66-3.22-9.81-17.2-20.29-33.87-33.74-48.65-2.31-2.54-3.51-6.85-3.65-10.41-.45-11.36-.17-22.75-.17-35.8Z"/>
    <path class="cls-5" d="M782.5,133.84c25.4,21.83,48.81,45.36,66.42,73.85,10.13,16.41,9.67,16.57,9.14,17.04-4.27-4.99-18.99-25.91-23.62-30.55-13.2-13.21-26.58-26.26-40.1-39.14,0,0-3.2-3.05-10.63-8.01-3.45-2.3-2.19-8.43-3.14-12.75.64-.15,1.28-.29,1.92-.44Z"/>
  </g>
  <path class="cls-6" d="M987.59-62.38c3.22,0,3.22-5,0-5s-3.22,5,0,5h0Z"/>
  <path class="cls-6" d="M983.35-29.56c3.22,0,3.22-5,0-5s-3.22,5,0,5h0Z"/>
  <g>
    <path class="cls-6" d="M176.45,924.61c2.24.34,4.03.78,5.37,1.33.42.14.68.31.8.52s.2.56.24,1.06l.9,9.52c0,.13-.12.22-.35.27-.23.04-.39-.02-.48-.21-1.29-3.75-3.14-6.61-5.54-8.6-2.4-1.99-5.29-2.98-8.66-2.98-3.14,0-5.95.83-8.41,2.5-2.47,1.67-4.41,4.06-5.82,7.16-1.41,3.11-2.11,6.74-2.11,10.89s.73,7.89,2.18,11.07c1.46,3.18,3.46,5.62,6.03,7.33,2.56,1.71,5.51,2.57,8.83,2.57s5.87-.86,8.04-2.57c2.17-1.71,4.22-4.53,6.16-8.46.05-.14.18-.18.42-.14.23.05.35.14.35.27l-1.04,8.5c-.09.55-.19.9-.28,1.06-.09.16-.35.33-.76.51-4.25,1.51-8.54,2.27-12.88,2.27-4.94,0-9.36-.93-13.26-2.78-3.9-1.85-6.96-4.44-9.18-7.77-2.22-3.33-3.33-7.12-3.33-11.38s1.14-8.21,3.43-11.61,5.43-6.07,9.42-7.98c3.99-1.92,8.44-2.88,13.33-2.88,2.17,0,4.38.17,6.62.52Z"/>
    <path class="cls-6" d="M199.79,966.59c-2.15-1.3-3.8-3.05-4.95-5.27-1.15-2.22-1.73-4.62-1.73-7.23,0-2.97.76-5.49,2.29-7.57,1.52-2.08,3.46-3.63,5.82-4.66,2.35-1.03,4.78-1.54,7.27-1.54,2.86,0,5.36.66,7.48,1.99,2.12,1.32,3.75,3.07,4.88,5.24,1.13,2.17,1.7,4.49,1.7,6.95,0,2.74-.69,5.17-2.08,7.29-1.38,2.13-3.24,3.78-5.58,4.97-2.33,1.18-4.86,1.78-7.59,1.78-2.86,0-5.37-.65-7.52-1.96ZM213.51,964.47c.94-1.76,1.42-4.28,1.42-7.57s-.41-5.93-1.25-8.22-1.92-4.01-3.26-5.17c-1.34-1.16-2.77-1.74-4.3-1.74-3.69,0-5.54,3.27-5.54,9.8,0,3.06.39,5.76,1.18,8.11.79,2.36,1.85,4.18,3.19,5.48,1.34,1.3,2.82,1.95,4.43,1.95,1.8,0,3.17-.88,4.12-2.64Z"/>
    <path class="cls-6" d="M263.69,967.25c0,.27-.07.41-.21.41-1.2,0-2.14-.02-2.84-.07l-4.16-.07-4.01.07c-.74.05-1.71.07-2.91.07-.14,0-.21-.13-.21-.41s.07-.41.21-.41c1.43,0,2.4-.33,2.91-1,.5-.66.76-1.91.76-3.73v-9.86c0-2.47-.45-4.29-1.35-5.48-.9-1.18-2.32-1.78-4.26-1.78-1.11,0-2.25.23-3.43.69s-2.2,1.08-3.09,1.85v14.59c0,1.82.27,3.07.8,3.73.53.66,1.51,1,2.95,1,.14,0,.21.13.21.41s-.07.41-.21.41c-1.2,0-2.14-.02-2.84-.07l-4.15-.07-4.09.07c-.69.05-1.64.07-2.84.07-.14,0-.21-.13-.21-.41s.07-.41.21-.41c1.43,0,2.4-.33,2.91-1,.51-.66.76-1.91.76-3.73v-12.88c0-1.42-.17-2.45-.52-3.12-.35-.66-.89-.99-1.63-.99-.78,0-1.89.32-3.32.95h-.14c-.14,0-.24-.11-.31-.34-.07-.22-.06-.36.04-.41l9.63-4.66c.28-.09.44-.13.49-.13.5,0,.99.49,1.45,1.47.46.98.74,2.32.83,4.01,3.19-3.74,6.7-5.62,10.53-5.62,2.49,0,4.46.79,5.92,2.36,1.46,1.58,2.18,3.64,2.18,6.2v13.16c0,1.82.27,3.07.8,3.73.53.66,1.51,1,2.95,1,.14,0,.21.13.21.41Z"/>
    <path class="cls-6" d="M277.72,947.93c.95.96,2.32,1.96,4.12,3.01,1.75,1.01,3.05,1.79,3.91,2.36s1.63,1.37,2.32,2.4,1.04,2.27,1.04,3.74c0,1.55-.39,3.01-1.18,4.39-.78,1.37-1.96,2.48-3.53,3.32-1.57.84-3.44,1.26-5.61,1.26-2.54,0-4.94-.61-7.2-1.85-.28-.27-.42-.55-.42-.83l-.14-6.78c0-.14.13-.22.38-.24.26-.02.4.01.45.1.74,2.28,1.96,4.23,3.67,5.82,1.71,1.6,3.44,2.4,5.19,2.4.97,0,1.74-.3,2.32-.89s.87-1.46.87-2.6c0-1.69-.49-3.03-1.46-4.01-.97-.98-2.4-2-4.29-3.05-1.62-.87-2.84-1.58-3.67-2.13-.83-.55-1.57-1.32-2.22-2.33-.65-1.01-.97-2.24-.97-3.7,0-2.7.97-4.67,2.91-5.93s4.32-1.88,7.14-1.88c1.06,0,2.02.07,2.87.21.86.13,1.81.41,2.87.82.42.14.63.39.63.75,0,1.14-.02,2.03-.07,2.67l-.07,3.43c0,.13-.14.21-.41.21s-.42-.07-.42-.21c0-.87-.37-1.82-1.11-2.84-.74-1.03-1.7-1.91-2.87-2.64-1.18-.73-2.39-1.1-3.64-1.1-1.89,0-2.84.89-2.84,2.67,0,1.32.47,2.47,1.42,3.43Z"/>
    <path class="cls-6" d="M321.82,963.14c.09,0,.19.09.31.27s.13.32.04.41c-1.71,1.64-3.44,2.83-5.2,3.56s-3.67,1.1-5.75,1.1c-2.91,0-5.43-.61-7.56-1.82-2.12-1.21-3.74-2.83-4.85-4.86-1.11-2.03-1.66-4.23-1.66-6.61,0-2.65.67-5.1,2.01-7.33,1.34-2.24,3.19-4.01,5.58-5.31,2.38-1.31,5.07-1.96,8.07-1.96s5.08.64,6.65,1.92c1.57,1.28,2.36,3.27,2.36,5.96,0,1.42-.26,2.13-.77,2.13l-16.83.07c-.05.32-.07.84-.07,1.58,0,4.01.94,7.17,2.81,9.45,1.87,2.28,4.56,3.43,8.07,3.43,1.25,0,2.31-.14,3.19-.41.87-.27,2.03-.78,3.46-1.51l.14-.07ZM306.36,943.92c-1.01,1.3-1.68,3.1-2.01,5.38l10.05-.14c-.04-2.33-.39-4.11-1.04-5.34-.64-1.23-1.71-1.85-3.19-1.85s-2.79.65-3.81,1.95Z"/>
    <path class="cls-6" d="M329.64,967.25c0-.28.05-.41.14-.41,1.43,0,2.41-.33,2.95-1,.53-.66.8-1.91.8-3.73l.07-34.8c0-1.6-.15-2.74-.45-3.43s-.82-1.03-1.56-1.03c-.6,0-1.48.25-2.63.75h-.07c-.14,0-.27-.13-.38-.38s-.13-.4-.04-.44l10.19-4.73.27-.07c.23,0,.49.1.77.31s.41.4.41.58v43.22c0,1.82.26,3.07.77,3.73.5.66,1.48,1,2.91,1,.18,0,.27.13.27.41s-.09.41-.27.41c-1.15,0-2.08-.02-2.77-.07l-4.23-.07-4.15.07c-.69.05-1.64.07-2.84.07-.09,0-.14-.13-.14-.41Z"/>
    <path class="cls-6" d="M383.67,967.25c0,.27-.1.41-.28.41-1.2,0-2.17-.02-2.91-.07l-4.02-.07-4.15.07c-.69.05-1.64.07-2.84.07-.09,0-.13-.13-.13-.41s.04-.41.13-.41c1.43,0,2.42-.33,2.95-1s.8-1.91.8-3.73v-9.86c0-2.47-.46-4.29-1.38-5.48-.92-1.18-2.36-1.78-4.29-1.78-1.11,0-2.25.23-3.43.69-1.17.46-2.2,1.08-3.08,1.85v14.59c0,1.82.27,3.07.8,3.73s1.51,1,2.95,1c.18,0,.27.13.27.41s-.09.41-.27.41c-1.2,0-2.17-.02-2.91-.07l-4.02-.07-4.15.07c-.69.05-1.64.07-2.84.07-.09,0-.14-.13-.14-.41s.05-.41.14-.41c1.43,0,2.42-.33,2.95-1s.8-1.91.8-3.73v-34.8c0-1.6-.15-2.74-.45-3.43-.3-.69-.82-1.03-1.56-1.03-.64,0-1.52.25-2.63.75h-.07c-.14,0-.27-.13-.38-.38s-.13-.4-.04-.44l10.11-4.73.35-.07c.23,0,.47.1.73.31s.38.4.38.58v27.12c3.28-3.74,6.79-5.62,10.53-5.62,2.49,0,4.46.79,5.92,2.36,1.45,1.58,2.18,3.64,2.18,6.2v13.16c0,1.82.27,3.07.8,3.73s1.51,1,2.95,1c.18,0,.28.13.28.41Z"/>
    <path class="cls-6" d="M397,966.59c-2.15-1.3-3.8-3.05-4.96-5.27s-1.73-4.62-1.73-7.23c0-2.97.77-5.49,2.29-7.57,1.52-2.08,3.46-3.63,5.82-4.66,2.35-1.03,4.78-1.54,7.27-1.54,2.87,0,5.36.66,7.48,1.99,2.13,1.32,3.75,3.07,4.88,5.24s1.7,4.49,1.7,6.95c0,2.74-.69,5.17-2.08,7.29-1.38,2.13-3.24,3.78-5.58,4.97-2.33,1.18-4.86,1.78-7.59,1.78-2.86,0-5.37-.65-7.51-1.96ZM410.72,964.47c.95-1.76,1.42-4.28,1.42-7.57s-.41-5.93-1.25-8.22-1.92-4.01-3.26-5.17c-1.34-1.16-2.78-1.74-4.3-1.74-3.69,0-5.54,3.27-5.54,9.8,0,3.06.39,5.76,1.18,8.11.78,2.36,1.85,4.18,3.19,5.48,1.34,1.3,2.81,1.95,4.43,1.95,1.8,0,3.17-.88,4.12-2.64Z"/>
    <path class="cls-6" d="M479.96,963.2c.14,0,.26.12.38.35.12.22.13.36.04.41l-9.56,4.59-.35.07c-.41,0-.8-.43-1.14-1.3s-.56-2.06-.66-3.57c-3.42,3.2-6.91,4.8-10.46,4.8-2.03,0-3.87-.53-5.5-1.58-1.64-1.04-2.95-2.59-3.92-4.62-.97-2.03-1.45-4.42-1.45-7.15,0-3.47.82-6.32,2.46-8.53,1.63-2.21,3.67-3.82,6.09-4.83,2.43-1,4.86-1.51,7.31-1.51,1.71,0,3.5.27,5.4.82v-13.84c0-1.6-.15-2.74-.45-3.43s-.82-1.03-1.56-1.03c-.6,0-1.45.25-2.56.75h-.07c-.18,0-.33-.13-.45-.38s-.13-.4-.04-.44l10.19-4.73.27-.07c.23,0,.49.1.77.31s.41.4.41.58v40.83c0,1.55.15,2.65.45,3.29.3.64.8.96,1.49.96.6,0,1.54-.25,2.84-.75h.07ZM468.59,962.38v-16.99c-.83-1.14-1.77-1.97-2.81-2.5-1.04-.52-2.25-.79-3.63-.79-2.5,0-4.4.86-5.72,2.57-1.32,1.71-1.97,4.49-1.97,8.33s.69,6.84,2.08,9.01,3.21,3.25,5.47,3.25,4.5-.95,6.58-2.87Z"/>
    <path class="cls-6" d="M510.78,963.14c.09,0,.19.09.31.27s.13.32.04.41c-1.71,1.64-3.44,2.83-5.19,3.56-1.76.73-3.67,1.1-5.75,1.1-2.91,0-5.42-.61-7.55-1.82s-3.74-2.83-4.85-4.86c-1.11-2.03-1.66-4.23-1.66-6.61,0-2.65.67-5.1,2-7.33,1.34-2.24,3.2-4.01,5.58-5.31,2.37-1.31,5.07-1.96,8.07-1.96s5.08.64,6.65,1.92c1.57,1.28,2.36,3.27,2.36,5.96,0,1.42-.26,2.13-.76,2.13l-16.84.07c-.05.32-.07.84-.07,1.58,0,4.01.94,7.17,2.81,9.45s4.56,3.43,8.07,3.43c1.25,0,2.31-.14,3.19-.41.87-.27,2.03-.78,3.46-1.51l.14-.07ZM495.33,943.92c-1.02,1.3-1.69,3.1-2.01,5.38l10.05-.14c-.05-2.33-.39-4.11-1.04-5.34-.65-1.23-1.71-1.85-3.19-1.85s-2.79.65-3.81,1.95Z"/>
    <path class="cls-6" d="M553.31,967.73c-.74-.05-1.65-.09-2.73-.14-1.09-.04-2.3-.07-3.64-.07l-5.13.07c-.92.05-2.17.07-3.74.07-.09,0-.14-.13-.14-.41s.05-.41.14-.41c1.48,0,2.56-.12,3.26-.34.69-.23,1.17-.67,1.42-1.34.25-.66.38-1.68.38-3.05v-31.72c0-1.37-.13-2.37-.38-3.02-.26-.64-.72-1.08-1.38-1.34-.67-.25-1.72-.38-3.15-.38-.14,0-.21-.13-.21-.41s.07-.41.21-.41l3.67.07c2.13.09,3.81.14,5.06.14,1.89,0,3.83-.07,5.82-.21,2.4-.09,4.01-.14,4.85-.14,4.66,0,8.81.92,12.44,2.75,3.62,1.82,6.43,4.31,8.41,7.46s2.98,6.69,2.98,10.62c0,4.43-1.03,8.34-3.09,11.75-2.05,3.4-4.82,6.02-8.31,7.88-3.49,1.85-7.31,2.77-11.47,2.77-1.48,0-3.23-.07-5.27-.2ZM565.71,964.13c2.26-1.48,4.03-3.69,5.3-6.61s1.91-6.41,1.91-10.48-.6-7.41-1.8-10.58c-1.2-3.18-2.91-5.67-5.13-7.5s-4.78-2.74-7.69-2.74-4.82.27-5.89.82-1.59,1.71-1.59,3.49v30.83c0,1.82.48,3.12,1.45,3.87s2.84,1.13,5.61,1.13c2.95,0,5.56-.74,7.83-2.23Z"/>
    <path class="cls-6" d="M614.76,963.14c.09,0,.19.09.31.27s.13.32.04.41c-1.71,1.64-3.44,2.83-5.2,3.56s-3.67,1.1-5.75,1.1c-2.91,0-5.43-.61-7.56-1.82-2.12-1.21-3.74-2.83-4.85-4.86-1.11-2.03-1.66-4.23-1.66-6.61,0-2.65.67-5.1,2.01-7.33,1.34-2.24,3.19-4.01,5.58-5.31,2.38-1.31,5.07-1.96,8.07-1.96s5.08.64,6.65,1.92c1.57,1.28,2.36,3.27,2.36,5.96,0,1.42-.26,2.13-.77,2.13l-16.83.07c-.05.32-.07.84-.07,1.58,0,4.01.94,7.17,2.81,9.45s4.56,3.43,8.07,3.43c1.25,0,2.31-.14,3.19-.41.87-.27,2.03-.78,3.46-1.51l.14-.07ZM599.31,943.92c-1.01,1.3-1.68,3.1-2.01,5.38l10.05-.14c-.04-2.33-.39-4.11-1.04-5.34-.64-1.23-1.71-1.85-3.19-1.85s-2.79.65-3.81,1.95Z"/>
    <path class="cls-6" d="M629.89,947.93c.95.96,2.32,1.96,4.12,3.01,1.75,1.01,3.05,1.79,3.91,2.36s1.63,1.37,2.32,2.4,1.04,2.27,1.04,3.74c0,1.55-.39,3.01-1.18,4.39-.78,1.37-1.96,2.48-3.53,3.32-1.57.84-3.44,1.26-5.61,1.26-2.54,0-4.94-.61-7.2-1.85-.28-.27-.42-.55-.42-.83l-.14-6.78c0-.14.13-.22.38-.24.26-.02.4.01.45.1.74,2.28,1.96,4.23,3.67,5.82,1.71,1.6,3.44,2.4,5.19,2.4.97,0,1.74-.3,2.32-.89s.87-1.46.87-2.6c0-1.69-.49-3.03-1.46-4.01-.97-.98-2.4-2-4.29-3.05-1.62-.87-2.84-1.58-3.67-2.13-.83-.55-1.57-1.32-2.22-2.33-.65-1.01-.97-2.24-.97-3.7,0-2.7.97-4.67,2.91-5.93,1.94-1.26,4.32-1.88,7.14-1.88,1.06,0,2.02.07,2.87.21.86.13,1.81.41,2.87.82.42.14.63.39.63.75,0,1.14-.02,2.03-.07,2.67l-.07,3.43c0,.13-.14.21-.41.21s-.42-.07-.42-.21c0-.87-.37-1.82-1.11-2.84-.74-1.03-1.7-1.91-2.87-2.64-1.18-.73-2.39-1.1-3.64-1.1-1.89,0-2.84.89-2.84,2.67,0,1.32.47,2.47,1.42,3.43Z"/>
    <path class="cls-6" d="M673.99,963.14c.09,0,.19.09.31.27s.13.32.04.41c-1.71,1.64-3.44,2.83-5.2,3.56-1.76.73-3.67,1.1-5.75,1.1-2.91,0-5.43-.61-7.56-1.82-2.12-1.21-3.74-2.83-4.85-4.86-1.11-2.03-1.66-4.23-1.66-6.61,0-2.65.67-5.1,2.01-7.33,1.34-2.24,3.19-4.01,5.58-5.31,2.38-1.31,5.07-1.96,8.07-1.96s5.08.64,6.65,1.92c1.57,1.28,2.36,3.27,2.36,5.96,0,1.42-.26,2.13-.77,2.13l-16.83.07c-.05.32-.07.84-.07,1.58,0,4.01.94,7.17,2.81,9.45s4.56,3.43,8.07,3.43c1.25,0,2.31-.14,3.19-.41.87-.27,2.03-.78,3.46-1.51l.14-.07ZM658.53,943.92c-1.01,1.3-1.68,3.1-2.01,5.38l10.05-.14c-.04-2.33-.39-4.11-1.04-5.34-.64-1.23-1.71-1.85-3.19-1.85s-2.79.65-3.81,1.95Z"/>
    <path class="cls-6" d="M714.99,967.25c0,.27-.07.41-.21.41-1.2,0-2.14-.02-2.84-.07l-4.16-.07-4.01.07c-.74.05-1.71.07-2.91.07-.14,0-.21-.13-.21-.41s.07-.41.21-.41c1.43,0,2.4-.33,2.91-1,.5-.66.76-1.91.76-3.73v-9.86c0-2.47-.45-4.29-1.35-5.48-.9-1.18-2.32-1.78-4.26-1.78-1.11,0-2.25.23-3.43.69s-2.2,1.08-3.09,1.85v14.59c0,1.82.27,3.07.8,3.73.53.66,1.51,1,2.95,1,.14,0,.21.13.21.41s-.07.41-.21.41c-1.2,0-2.14-.02-2.84-.07l-4.15-.07-4.09.07c-.69.05-1.64.07-2.84.07-.14,0-.21-.13-.21-.41s.07-.41.21-.41c1.43,0,2.4-.33,2.91-1,.5-.66.76-1.91.76-3.73v-12.88c0-1.42-.17-2.45-.52-3.12-.35-.66-.89-.99-1.63-.99-.78,0-1.89.32-3.32.95h-.14c-.14,0-.24-.11-.31-.34-.07-.22-.06-.36.04-.41l9.63-4.66c.28-.09.44-.13.49-.13.5,0,.99.49,1.45,1.47.46.98.74,2.32.83,4.01,3.19-3.74,6.7-5.62,10.53-5.62,2.49,0,4.46.79,5.92,2.36,1.46,1.58,2.18,3.64,2.18,6.2v13.16c0,1.82.27,3.07.8,3.73.53.66,1.51,1,2.95,1,.14,0,.21.13.21.41Z"/>
    <path class="cls-6" d="M751.01,941.62c0,.27-.04.41-.14.41-1.34,0-2.53.5-3.57,1.51-1.04,1.01-2.02,2.56-2.95,4.66l-8.52,19.45c-.04.23-.3.35-.76.35-.37,0-.63-.12-.77-.35l-10.6-20.75c-.97-2.01-1.82-3.32-2.56-3.94-.73-.61-1.64-.92-2.7-.92-.14,0-.21-.14-.21-.41s.07-.41.21-.41c.83,0,1.52.02,2.08.07l4.64.07,5.33-.07c.78-.04,1.87-.07,3.26-.07.14,0,.21.13.21.41s-.07.41-.21.41c-2.68,0-4.01.53-4.01,1.57,0,.28.12.64.35,1.1l7.76,14.38,4.57-10.96c.37-.96.55-1.78.55-2.47,0-1.14-.39-2.03-1.18-2.67s-1.87-.96-3.26-.96c-.09,0-.14-.14-.14-.41s.05-.41.14-.41c1.25,0,2.19.02,2.84.07l4.15.07,2.77-.07c.56-.04,1.41-.07,2.56-.07.1,0,.14.13.14.41Z"/>
    <path class="cls-6" d="M762.27,966.59c-2.15-1.3-3.8-3.05-4.96-5.27-1.15-2.22-1.73-4.62-1.73-7.23,0-2.97.76-5.49,2.28-7.57,1.53-2.08,3.47-3.63,5.82-4.66,2.36-1.03,4.78-1.54,7.28-1.54,2.86,0,5.36.66,7.48,1.99,2.12,1.32,3.75,3.07,4.88,5.24,1.13,2.17,1.69,4.49,1.69,6.95,0,2.74-.69,5.17-2.08,7.29s-3.24,3.78-5.58,4.97c-2.33,1.18-4.86,1.78-7.59,1.78-2.86,0-5.37-.65-7.51-1.96ZM775.98,964.47c.95-1.76,1.42-4.28,1.42-7.57s-.42-5.93-1.25-8.22c-.83-2.28-1.91-4.01-3.26-5.17-1.34-1.16-2.77-1.74-4.29-1.74-3.69,0-5.54,3.27-5.54,9.8,0,3.06.39,5.76,1.18,8.11.78,2.36,1.85,4.18,3.18,5.48,1.34,1.3,2.82,1.95,4.43,1.95,1.8,0,3.18-.88,4.12-2.64Z"/>
    <path class="cls-6" d="M792.99,967.25c0-.28.05-.41.14-.41,1.43,0,2.41-.33,2.95-1,.53-.66.8-1.91.8-3.73l.07-34.8c0-1.6-.15-2.74-.46-3.43-.3-.69-.82-1.03-1.55-1.03-.6,0-1.48.25-2.64.75h-.07c-.14,0-.27-.13-.38-.38s-.13-.4-.04-.44l10.19-4.73.28-.07c.23,0,.49.1.76.31.28.21.42.4.42.58v43.22c0,1.82.25,3.07.76,3.73s1.48,1,2.91,1c.18,0,.28.13.28.41s-.1.41-.28.41c-1.15,0-2.08-.02-2.77-.07l-4.23-.07-4.15.07c-.69.05-1.64.07-2.84.07-.09,0-.14-.13-.14-.41Z"/>
    <path class="cls-6" d="M844.32,941.62c0,.27-.05.41-.14.41-1.34,0-2.53.5-3.57,1.51-1.04,1.01-2.02,2.56-2.95,4.66l-8.52,19.45c-.05.23-.3.35-.76.35-.37,0-.63-.12-.77-.35l-10.6-20.75c-.97-2.01-1.82-3.32-2.56-3.94-.74-.61-1.64-.92-2.7-.92-.13,0-.21-.14-.21-.41s.07-.41.21-.41c.83,0,1.52.02,2.08.07l4.65.07,5.33-.07c.78-.04,1.87-.07,3.26-.07.14,0,.21.13.21.41s-.07.41-.21.41c-2.68,0-4.02.53-4.02,1.57,0,.28.12.64.35,1.1l7.76,14.38,4.57-10.96c.36-.96.55-1.78.55-2.47,0-1.14-.39-2.03-1.18-2.67s-1.87-.96-3.26-.96c-.09,0-.14-.14-.14-.41s.05-.41.14-.41c1.25,0,2.19.02,2.84.07l4.15.07,2.77-.07c.55-.04,1.41-.07,2.56-.07.09,0,.14.13.14.41Z"/>
    <path class="cls-6" d="M849.17,967.25c0-.28.07-.41.21-.41,1.43,0,2.4-.33,2.91-1,.5-.66.76-1.91.76-3.73v-12.26c0-1.55-.16-2.67-.49-3.36-.32-.69-.85-1.03-1.59-1.03-.6,0-1.45.25-2.56.75h-.07c-.19,0-.33-.13-.42-.38s-.07-.4.07-.44l10.46-4.8.21-.07c.23,0,.46.12.69.34.23.23.35.44.35.62v1.51c-.09,1.83-.14,4.06-.14,6.71v12.4c0,1.82.27,3.07.8,3.73.53.66,1.51,1,2.94,1,.14,0,.21.13.21.41s-.07.41-.21.41c-1.2,0-2.14-.02-2.84-.07l-4.16-.07-4.09.07c-.69.05-1.64.07-2.84.07-.14,0-.21-.13-.21-.41ZM852.91,932.65c-.74-.73-1.11-1.76-1.11-3.09,0-1.18.38-2.13,1.14-2.84.77-.7,1.79-1.06,3.09-1.06s2.28.35,2.98,1.03c.69.68,1.04,1.64,1.04,2.87,0,1.32-.35,2.36-1.04,3.09s-1.68,1.09-2.98,1.09-2.38-.36-3.12-1.09Z"/>
    <path class="cls-6" d="M921.21,967.25c0,.27-.09.41-.27.41-1.2,0-2.15-.02-2.84-.07l-4.15-.07-4.02.07c-.73.05-1.71.07-2.91.07-.14,0-.21-.13-.21-.41s.07-.41.21-.41c1.43,0,2.42-.33,2.95-1s.8-1.91.8-3.73v-9.86c0-2.47-.43-4.29-1.28-5.48-.86-1.18-2.16-1.78-3.91-1.78-1.2,0-2.38.25-3.53.75s-2.14,1.19-2.98,2.05v14.32c0,1.82.26,3.07.8,3.73.53.66,1.51,1,2.95,1,.18,0,.27.13.27.41s-.09.41-.27.41c-1.2,0-2.15-.02-2.84-.07l-4.15-.07-4.02.07c-.74.05-1.71.07-2.91.07-.14,0-.21-.13-.21-.41s.07-.41.21-.41c1.43,0,2.41-.33,2.95-1,.53-.66.8-1.91.8-3.73v-9.86c0-2.47-.43-4.29-1.28-5.48-.86-1.18-2.16-1.78-3.91-1.78-1.11,0-2.21.22-3.29.65-1.09.44-2.05,1.04-2.88,1.82v14.66c0,1.82.27,3.07.8,3.73.53.66,1.51,1,2.94,1,.14,0,.21.13.21.41s-.07.41-.21.41c-1.2,0-2.14-.02-2.84-.07l-4.16-.07-4.09.07c-.69.05-1.64.07-2.84.07-.14,0-.21-.13-.21-.41s.07-.41.21-.41c1.43,0,2.4-.33,2.91-1,.5-.66.76-1.91.76-3.73v-12.88c0-1.42-.17-2.45-.52-3.12s-.89-.99-1.63-.99c-.79,0-1.89.32-3.33.95h-.14c-.13,0-.24-.11-.31-.34-.07-.22-.05-.36.04-.41l9.63-4.66c.28-.09.44-.13.49-.13.51,0,.99.49,1.46,1.47.46.98.73,2.3.83,3.94,3.14-3.7,6.52-5.55,10.12-5.55,2.17,0,3.9.53,5.19,1.58s2.08,2.56,2.36,4.52c3.19-4.06,6.72-6.1,10.6-6.1,2.5,0,4.4.71,5.72,2.13s1.97,3.56,1.97,6.44v13.16c0,1.82.27,3.07.8,3.73s1.51,1,2.95,1c.18,0,.27.13.27.41Z"/>
    <path class="cls-6" d="M952.51,963.14c.1,0,.2.09.32.27s.13.32.03.41c-1.71,1.64-3.44,2.83-5.19,3.56-1.76.73-3.67,1.1-5.75,1.1-2.91,0-5.42-.61-7.55-1.82s-3.74-2.83-4.85-4.86c-1.11-2.03-1.66-4.23-1.66-6.61,0-2.65.67-5.1,2.01-7.33,1.34-2.24,3.19-4.01,5.58-5.31,2.37-1.31,5.07-1.96,8.07-1.96s5.08.64,6.65,1.92c1.57,1.28,2.35,3.27,2.35,5.96,0,1.42-.26,2.13-.76,2.13l-16.84.07c-.04.32-.07.84-.07,1.58,0,4.01.94,7.17,2.81,9.45s4.56,3.43,8.07,3.43c1.25,0,2.31-.14,3.18-.41.88-.27,2.03-.78,3.47-1.51l.13-.07ZM937.07,943.92c-1.01,1.3-1.69,3.1-2.01,5.38l10.05-.14c-.05-2.33-.39-4.11-1.04-5.34-.65-1.23-1.71-1.85-3.19-1.85s-2.79.65-3.81,1.95Z"/>
    <path class="cls-6" d="M993.53,967.25c0,.27-.07.41-.21.41-1.2,0-2.14-.02-2.84-.07l-4.16-.07-4.01.07c-.74.05-1.71.07-2.91.07-.14,0-.21-.13-.21-.41s.07-.41.21-.41c1.43,0,2.4-.33,2.91-1s.76-1.91.76-3.73v-9.86c0-2.47-.45-4.29-1.35-5.48-.9-1.18-2.32-1.78-4.26-1.78-1.11,0-2.25.23-3.43.69s-2.2,1.08-3.09,1.85v14.59c0,1.82.27,3.07.8,3.73.53.66,1.51,1,2.94,1,.14,0,.21.13.21.41s-.07.41-.21.41c-1.2,0-2.14-.02-2.84-.07l-4.16-.07-4.09.07c-.69.05-1.64.07-2.84.07-.14,0-.21-.13-.21-.41s.07-.41.21-.41c1.43,0,2.4-.33,2.91-1,.5-.66.76-1.91.76-3.73v-12.88c0-1.42-.17-2.45-.52-3.12s-.89-.99-1.63-.99c-.79,0-1.89.32-3.33.95h-.14c-.13,0-.24-.11-.31-.34-.07-.22-.05-.36.04-.41l9.63-4.66c.28-.09.44-.13.49-.13.51,0,.99.49,1.46,1.47.46.98.73,2.32.83,4.01,3.19-3.74,6.7-5.62,10.53-5.62,2.5,0,4.47.79,5.92,2.36,1.46,1.58,2.19,3.64,2.19,6.2v13.16c0,1.82.26,3.07.8,3.73.53.66,1.51,1,2.94,1,.14,0,.21.13.21.41Z"/>
    <path class="cls-6" d="M1020.4,962.86c.19,0,.33.09.46.27.11.18.1.32-.04.41-1.71,1.69-3.37,2.93-4.99,3.73-1.62.8-3.33,1.2-5.13,1.2-2.03,0-3.77-.48-5.2-1.44-1.43-.96-2.14-2.58-2.14-4.86v-15.21c0-1.42-.26-2.4-.77-2.95s-1.43-.82-2.77-.82c-.05,0-.1-.07-.18-.21-.07-.14-.1-.27-.1-.41,0-.18.02-.33.07-.44.04-.12.12-.17.21-.17,2.36-.09,4.26-.6,5.72-1.51,1.45-.92,2.58-2.31,3.36-4.18.09-.18.29-.28.59-.28s.45.1.45.28v5.48c2.68-.05,5.68-.25,9.01-.62.09,0,.19.18.31.52s.18.72.18,1.13c0,.46-.09.9-.24,1.34-.16.44-.33.63-.52.58-3-.64-5.91-.98-8.73-1.03v16.23c0,1.74.45,3.01,1.35,3.83.9.83,2.09,1.23,3.57,1.23,1.85,0,3.65-.68,5.41-2.05l.13-.07Z"/>
    <path class="cls-6" d="M1033.6,966.59c-2.15-1.3-3.8-3.05-4.96-5.27-1.15-2.22-1.73-4.62-1.73-7.23,0-2.97.76-5.49,2.28-7.57,1.52-2.08,3.47-3.63,5.82-4.66,2.36-1.03,4.78-1.54,7.28-1.54,2.86,0,5.36.66,7.48,1.99,2.12,1.32,3.75,3.07,4.88,5.24,1.13,2.17,1.69,4.49,1.69,6.95,0,2.74-.69,5.17-2.08,7.29s-3.24,3.78-5.58,4.97c-2.33,1.18-4.86,1.78-7.59,1.78-2.86,0-5.37-.65-7.51-1.96ZM1047.32,964.47c.95-1.76,1.42-4.28,1.42-7.57s-.42-5.93-1.25-8.22c-.83-2.28-1.91-4.01-3.26-5.17-1.34-1.16-2.77-1.74-4.29-1.74-3.69,0-5.54,3.27-5.54,9.8,0,3.06.39,5.76,1.18,8.11.78,2.36,1.85,4.18,3.18,5.48,1.34,1.3,2.82,1.95,4.43,1.95,1.8,0,3.18-.88,4.12-2.64Z"/>
    <path class="cls-6" d="M255.52,1034.91c.14,0,.27.04.38.1s.17.13.17.17c-.46,3.57-.69,6.81-.69,9.73,0,.36-.07.63-.21.79-.14.16-.41.24-.83.24h-30.62c-.14,0-.21-.14-.21-.41s.07-.41.21-.41c1.48,0,2.55-.12,3.22-.35.67-.22,1.12-.67,1.35-1.34s.35-1.68.35-3.05v-31.72c0-1.37-.12-2.37-.35-3.01s-.69-1.08-1.38-1.34c-.7-.25-1.76-.38-3.19-.38-.14,0-.21-.13-.21-.41s.07-.41.21-.41h29.37c.46,0,.69.21.69.61l.14,9.11c0,.1-.13.16-.38.21-.26.05-.41,0-.45-.13-.74-2.65-1.99-4.62-3.74-5.89-1.76-1.28-4.06-1.92-6.93-1.92h-2.08c-1.38,0-2.4.3-3.05.89-.65.6-.97,1.51-.97,2.75v13.98h5.75c2.68,0,4.74-.46,6.16-1.37,1.43-.91,2.15-2.19,2.15-3.84,0-.13.13-.21.38-.21s.38.07.38.21l-.07,6.16.07,3.29c.1,1.55.14,2.79.14,3.7,0,.09-.14.13-.41.13s-.42-.04-.42-.13c0-1.87-.72-3.35-2.18-4.42-1.45-1.07-3.54-1.61-6.27-1.61h-5.68v15.48c0,1.32.25,2.31.76,2.95.51.64,1.32.96,2.42.96h2.29c3.6,0,6.49-.73,8.65-2.19,2.17-1.46,3.77-3.72,4.78-6.78,0-.09.1-.14.28-.14Z"/>
    <path class="cls-6" d="M271.07,1044.81c-2.1-1.3-3.67-2.99-4.71-5.07-1.04-2.08-1.56-4.26-1.56-6.54,0-2.88.81-5.4,2.42-7.57,1.62-2.17,3.69-3.84,6.2-5,2.52-1.17,5.1-1.75,7.73-1.75,2.22,0,4.21.46,5.99,1.37,1.77.92,2.67,2.17,2.67,3.77,0,.87-.34,1.61-1.01,2.22-.67.62-1.6.93-2.81.93-1.11,0-1.99-.29-2.63-.86-.65-.57-1.18-1.45-1.59-2.64-.42-1.28-.82-2.16-1.21-2.64s-1.1-.72-2.11-.72c-1.99,0-3.57.97-4.74,2.91-1.18,1.94-1.77,4.51-1.77,7.71,0,3.79.86,6.81,2.56,9.07,1.71,2.27,4.43,3.4,8.17,3.4,1.25,0,2.32-.14,3.22-.41s2.05-.73,3.43-1.37h.07c.14,0,.27.07.38.21.12.14.13.26.04.35-1.71,1.55-3.42,2.7-5.13,3.46-1.71.75-3.67,1.13-5.89,1.13-3.05,0-5.62-.65-7.73-1.95Z"/>
    <path class="cls-6" d="M303.97,1044.88c-2.15-1.3-3.8-3.05-4.96-5.27s-1.73-4.63-1.73-7.23c0-2.97.77-5.49,2.29-7.57,1.52-2.08,3.46-3.63,5.82-4.66,2.35-1.03,4.78-1.54,7.27-1.54,2.87,0,5.36.66,7.48,1.99,2.13,1.32,3.75,3.07,4.88,5.24,1.13,2.17,1.7,4.48,1.7,6.95,0,2.75-.69,5.17-2.08,7.3-1.38,2.12-3.24,3.78-5.58,4.96-2.33,1.19-4.86,1.79-7.59,1.79-2.86,0-5.37-.66-7.51-1.96ZM317.69,1042.76c.95-1.76,1.42-4.28,1.42-7.57s-.41-5.93-1.25-8.22-1.92-4.01-3.26-5.17c-1.34-1.16-2.78-1.74-4.3-1.74-3.69,0-5.54,3.26-5.54,9.79,0,3.06.39,5.77,1.18,8.12s1.85,4.18,3.19,5.48c1.34,1.31,2.81,1.96,4.43,1.96,1.8,0,3.17-.88,4.12-2.64Z"/>
    <path class="cls-6" d="M367.87,1045.53c0,.27-.07.41-.21.41-1.2,0-2.14-.02-2.84-.07l-4.16-.07-4.01.07c-.74.04-1.71.07-2.91.07-.14,0-.21-.14-.21-.41s.07-.41.21-.41c1.43,0,2.4-.33,2.91-1,.5-.66.76-1.91.76-3.74v-9.86c0-2.47-.45-4.29-1.35-5.48-.9-1.18-2.32-1.78-4.26-1.78-1.11,0-2.25.22-3.43.69-1.18.46-2.2,1.07-3.09,1.85v14.59c0,1.83.27,3.07.8,3.74.53.66,1.51,1,2.95,1,.14,0,.21.13.21.41s-.07.41-.21.41c-1.2,0-2.14-.02-2.84-.07l-4.15-.07-4.09.07c-.69.04-1.64.07-2.84.07-.14,0-.21-.14-.21-.41s.07-.41.21-.41c1.43,0,2.4-.33,2.91-1,.5-.66.76-1.91.76-3.74v-12.88c0-1.42-.17-2.45-.52-3.12-.35-.66-.89-1-1.63-1-.78,0-1.89.32-3.32.96h-.14c-.14,0-.24-.11-.31-.34-.07-.23-.06-.36.04-.41l9.63-4.66c.28-.09.44-.13.49-.13.5,0,.99.49,1.45,1.47.46.98.74,2.32.83,4.01,3.19-3.75,6.7-5.62,10.53-5.62,2.49,0,4.46.79,5.92,2.36,1.46,1.58,2.18,3.64,2.18,6.2v13.15c0,1.83.27,3.07.8,3.74.53.66,1.51,1,2.95,1,.14,0,.21.13.21.41Z"/>
    <path class="cls-6" d="M381.21,1044.88c-2.15-1.3-3.8-3.05-4.96-5.27s-1.73-4.63-1.73-7.23c0-2.97.77-5.49,2.29-7.57,1.52-2.08,3.46-3.63,5.82-4.66,2.35-1.03,4.78-1.54,7.27-1.54,2.87,0,5.36.66,7.48,1.99,2.13,1.32,3.75,3.07,4.88,5.24s1.7,4.48,1.7,6.95c0,2.75-.69,5.17-2.08,7.3-1.38,2.12-3.24,3.78-5.58,4.96-2.33,1.19-4.86,1.79-7.59,1.79-2.86,0-5.37-.66-7.51-1.96ZM394.92,1042.76c.95-1.76,1.42-4.28,1.42-7.57s-.41-5.93-1.25-8.22-1.92-4.01-3.26-5.17c-1.34-1.16-2.78-1.74-4.3-1.74-3.69,0-5.54,3.26-5.54,9.79,0,3.06.39,5.77,1.18,8.12.78,2.35,1.85,4.18,3.19,5.48,1.34,1.31,2.81,1.96,4.43,1.96,1.8,0,3.17-.88,4.12-2.64ZM394.82,1013.41c0,.09-.1.16-.31.2-.21.05-.34,0-.38-.13l-4.71-7.4-4.78,7.4c-.04.13-.19.17-.45.1s-.36-.15-.31-.24l4.71-17.05c.04-.23.3-.34.76-.34.51,0,.78.11.83.34l4.64,17.05v.07Z"/>
    <path class="cls-6" d="M462.5,1045.53c0,.27-.09.41-.27.41-1.2,0-2.15-.02-2.84-.07l-4.15-.07-4.02.07c-.74.04-1.71.07-2.91.07-.14,0-.21-.14-.21-.41s.07-.41.21-.41c1.43,0,2.41-.33,2.95-1,.53-.66.8-1.91.8-3.74v-9.86c0-2.47-.43-4.29-1.28-5.48-.86-1.18-2.16-1.78-3.91-1.78-1.2,0-2.38.25-3.53.75s-2.15,1.18-2.98,2.05v14.32c0,1.83.27,3.07.8,3.74.53.66,1.51,1,2.94,1,.19,0,.28.13.28.41s-.09.41-.28.41c-1.2,0-2.14-.02-2.84-.07l-4.16-.07-4.01.07c-.74.04-1.71.07-2.91.07-.14,0-.21-.14-.21-.41s.07-.41.21-.41c1.43,0,2.41-.33,2.95-1,.53-.66.8-1.91.8-3.74v-9.86c0-2.47-.43-4.29-1.28-5.48-.86-1.18-2.16-1.78-3.92-1.78-1.11,0-2.2.22-3.29.65-1.09.43-2.05,1.04-2.88,1.82v14.66c0,1.83.27,3.07.8,3.74.53.66,1.51,1,2.95,1,.14,0,.21.13.21.41s-.07.41-.21.41c-1.2,0-2.14-.02-2.84-.07l-4.15-.07-4.09.07c-.69.04-1.64.07-2.84.07-.14,0-.21-.14-.21-.41s.07-.41.21-.41c1.43,0,2.4-.33,2.91-1,.5-.66.76-1.91.76-3.74v-12.88c0-1.42-.17-2.45-.52-3.12-.35-.66-.89-1-1.63-1-.78,0-1.89.32-3.32.96h-.14c-.14,0-.24-.11-.31-.34-.07-.23-.06-.36.04-.41l9.63-4.66c.28-.09.44-.13.49-.13.5,0,.99.49,1.45,1.47.46.98.74,2.3.83,3.94,3.14-3.7,6.51-5.55,10.11-5.55,2.17,0,3.91.53,5.2,1.57,1.29,1.06,2.08,2.56,2.36,4.52,3.18-4.06,6.72-6.1,10.6-6.1,2.49,0,4.4.71,5.72,2.13,1.31,1.42,1.97,3.56,1.97,6.44v13.15c0,1.83.26,3.07.8,3.74.53.66,1.51,1,2.95,1,.18,0,.27.13.27.41Z"/>
    <path class="cls-6" d="M469.42,1045.53c0-.27.07-.41.21-.41,1.43,0,2.4-.33,2.91-1s.77-1.91.77-3.74v-12.26c0-1.55-.16-2.67-.49-3.36-.33-.69-.86-1.03-1.6-1.03-.6,0-1.45.25-2.56.75h-.07c-.18,0-.32-.13-.41-.38-.1-.26-.07-.4.07-.45l10.46-4.79.21-.07c.23,0,.46.11.69.34s.35.44.35.62v1.51c-.09,1.82-.13,4.06-.13,6.71v12.4c0,1.83.26,3.07.8,3.74.53.66,1.51,1,2.95,1,.13,0,.21.13.21.41s-.07.41-.21.41c-1.2,0-2.15-.02-2.84-.07l-4.15-.07-4.09.07c-.69.04-1.64.07-2.84.07-.14,0-.21-.14-.21-.41ZM473.17,1010.94c-.74-.73-1.11-1.76-1.11-3.09,0-1.18.38-2.13,1.14-2.84.77-.71,1.79-1.06,3.09-1.06s2.28.35,2.98,1.03c.69.69,1.04,1.65,1.04,2.88,0,1.32-.35,2.35-1.04,3.09-.69.73-1.68,1.09-2.98,1.09s-2.38-.36-3.12-1.09Z"/>
    <path class="cls-6" d="M497.1,1044.81c-2.1-1.3-3.67-2.99-4.71-5.07-1.04-2.08-1.56-4.26-1.56-6.54,0-2.88.81-5.4,2.42-7.57,1.62-2.17,3.69-3.84,6.2-5,2.52-1.17,5.1-1.75,7.73-1.75,2.22,0,4.21.46,5.99,1.37,1.77.92,2.67,2.17,2.67,3.77,0,.87-.34,1.61-1.01,2.22-.67.62-1.6.93-2.81.93-1.11,0-1.99-.29-2.63-.86-.65-.57-1.18-1.45-1.59-2.64-.42-1.28-.82-2.16-1.21-2.64s-1.1-.72-2.11-.72c-1.99,0-3.57.97-4.74,2.91-1.18,1.94-1.77,4.51-1.77,7.71,0,3.79.86,6.81,2.56,9.07,1.71,2.27,4.43,3.4,8.17,3.4,1.25,0,2.32-.14,3.22-.41s2.05-.73,3.43-1.37h.07c.14,0,.27.07.38.21.12.14.13.26.04.35-1.71,1.55-3.42,2.7-5.13,3.46-1.71.75-3.67,1.13-5.89,1.13-3.05,0-5.62-.65-7.73-1.95Z"/>
    <path class="cls-6" d="M530,1044.88c-2.15-1.3-3.8-3.05-4.96-5.27s-1.73-4.63-1.73-7.23c0-2.97.77-5.49,2.29-7.57,1.52-2.08,3.46-3.63,5.82-4.66,2.35-1.03,4.78-1.54,7.27-1.54,2.87,0,5.36.66,7.48,1.99,2.13,1.32,3.75,3.07,4.88,5.24s1.7,4.48,1.7,6.95c0,2.75-.69,5.17-2.08,7.3-1.38,2.12-3.24,3.78-5.58,4.96-2.33,1.19-4.86,1.79-7.59,1.79-2.86,0-5.37-.66-7.51-1.96ZM543.72,1042.76c.95-1.76,1.42-4.28,1.42-7.57s-.41-5.93-1.25-8.22-1.92-4.01-3.26-5.17c-1.34-1.16-2.78-1.74-4.3-1.74-3.69,0-5.54,3.26-5.54,9.79,0,3.06.39,5.77,1.18,8.12s1.85,4.18,3.19,5.48c1.34,1.31,2.81,1.96,4.43,1.96,1.8,0,3.17-.88,4.12-2.64Z"/>
    <path class="cls-6" d="M604.98,1041.42c.09,0,.19.09.31.27s.13.32.04.41c-1.71,1.65-3.44,2.84-5.19,3.57-1.76.73-3.67,1.09-5.75,1.09-2.91,0-5.42-.6-7.55-1.82-2.13-1.21-3.74-2.83-4.85-4.86-1.11-2.03-1.66-4.24-1.66-6.61,0-2.65.67-5.09,2-7.33,1.34-2.24,3.2-4,5.58-5.31,2.37-1.3,5.07-1.95,8.07-1.95s5.08.64,6.65,1.92c1.57,1.28,2.36,3.26,2.36,5.96,0,1.42-.26,2.13-.76,2.13l-16.84.07c-.05.32-.07.84-.07,1.57,0,4.02.94,7.17,2.81,9.46s4.56,3.43,8.07,3.43c1.25,0,2.31-.14,3.19-.41.87-.27,2.03-.78,3.46-1.51l.14-.07ZM589.54,1022.21c-1.02,1.3-1.69,3.09-2.01,5.38l10.05-.13c-.05-2.33-.39-4.11-1.04-5.34-.65-1.23-1.71-1.85-3.19-1.85s-2.79.66-3.81,1.96Z"/>
    <path class="cls-6" d="M643.53,1014.43c.86,1.28,1.91,2.4,3.15,3.35,1.25.96,2.93,2.13,5.06,3.5,2.31,1.46,4.15,2.74,5.54,3.83,1.38,1.1,2.56,2.44,3.53,4.01.97,1.57,1.46,3.39,1.46,5.45,0,2.37-.65,4.48-1.94,6.33s-3.08,3.29-5.37,4.32c-2.28,1.03-4.83,1.54-7.65,1.54-2.08,0-4.25-.29-6.51-.86-2.27-.57-3.79-1.2-4.57-1.88-.23-.18-.41-.35-.52-.51-.12-.16-.17-.43-.17-.79l-.21-10.89v-.07c0-.18.12-.29.35-.3.23-.02.37.05.41.24,1.38,2.79,2.6,5.05,3.64,6.78,1.04,1.73,2.36,3.26,3.95,4.59,1.59,1.32,3.41,1.99,5.44,1.99,1.85,0,3.37-.49,4.57-1.47s1.8-2.66,1.8-5.03c0-2.01-.45-3.77-1.35-5.28-.9-1.51-2-2.78-3.29-3.83-1.29-1.05-3.07-2.31-5.34-3.77-2.22-1.41-3.94-2.62-5.16-3.63-1.23-1.01-2.28-2.22-3.15-3.63-.88-1.42-1.32-3.09-1.32-5,0-2.42.7-4.46,2.11-6.13,1.41-1.66,3.22-2.9,5.44-3.7,2.22-.8,4.55-1.2,7-1.2,1.62,0,3.26.15,4.92.44s3,.65,4.01,1.06c.42.18.7.38.83.58.14.21.21.47.21.78v10.07c0,.14-.12.24-.35.31-.24.07-.37.04-.42-.1l-.55-1.3c-1.15-2.88-2.51-5.32-4.05-7.33-1.55-2.01-3.71-3.01-6.48-3.01-1.85,0-3.36.52-4.54,1.57s-1.77,2.58-1.77,4.59c0,1.65.43,3.1,1.28,4.39Z"/>
    <path class="cls-6" d="M703.9,1041.49c.14,0,.27.12.38.34.12.23.1.37-.04.41l-9.56,4.59c-.09.04-.21.07-.35.07-.46,0-.86-.49-1.21-1.48-.35-.98-.55-2.31-.59-4-3.05,3.56-6.35,5.34-9.91,5.34-2.54,0-4.54-.78-5.99-2.36-1.45-1.57-2.18-3.64-2.18-6.19v-10.07c0-2.97-.72-4.46-2.15-4.46-.51,0-1.09.16-1.73.48h-.07c-.19,0-.33-.12-.42-.38-.09-.25-.07-.39.07-.44l9.28-4.39.35-.07c.23,0,.47.1.73.31.25.2.38.4.38.58v15.14c0,4.93,1.92,7.4,5.75,7.4,1.01,0,2.05-.21,3.09-.65,1.04-.43,1.97-1.04,2.81-1.82v-11.71c0-2.97-.72-4.46-2.15-4.46-.51,0-1.11.16-1.8.48h-.07c-.14,0-.26-.12-.35-.38-.09-.25-.07-.39.07-.44l9.29-4.39c.09-.04.21-.07.35-.07.23,0,.47.1.73.31.25.2.38.4.38.58v18.22c0,1.55.15,2.65.45,3.29.3.64.8.96,1.49.96.64,0,1.59-.25,2.84-.75h.14Z"/>
    <path class="cls-6" d="M717.37,1026.21c.95.96,2.33,1.96,4.12,3.01,1.76,1,3.06,1.79,3.91,2.36.86.57,1.63,1.37,2.33,2.4.69,1.03,1.04,2.27,1.04,3.74,0,1.55-.39,3.01-1.18,4.38-.79,1.37-1.97,2.48-3.53,3.32-1.57.84-3.44,1.27-5.61,1.27-2.54,0-4.94-.61-7.2-1.85-.28-.28-.41-.55-.41-.83l-.14-6.78c0-.14.13-.22.38-.24.25-.02.4.01.45.1.73,2.28,1.96,4.23,3.67,5.82s3.44,2.39,5.2,2.39c.97,0,1.74-.29,2.32-.89.58-.6.86-1.46.86-2.61,0-1.69-.49-3.02-1.45-4.01-.97-.98-2.41-1.99-4.29-3.04-1.62-.87-2.84-1.58-3.67-2.13s-1.57-1.32-2.22-2.33c-.64-1-.97-2.24-.97-3.7,0-2.69.97-4.66,2.91-5.92,1.94-1.26,4.32-1.88,7.14-1.88,1.06,0,2.02.07,2.88.2.85.14,1.81.41,2.87.83.41.13.63.39.63.75,0,1.14-.02,2.03-.07,2.67l-.07,3.43c0,.13-.14.21-.42.21s-.41-.07-.41-.21c0-.87-.37-1.82-1.11-2.84-.73-1.03-1.69-1.91-2.87-2.64-1.18-.73-2.39-1.09-3.64-1.09-1.89,0-2.84.89-2.84,2.67,0,1.32.47,2.47,1.42,3.43Z"/>
    <path class="cls-6" d="M757.03,1041.14c.18,0,.33.1.45.28s.1.32-.03.41c-1.71,1.69-3.38,2.93-4.99,3.74-1.62.8-3.32,1.2-5.13,1.2-2.03,0-3.76-.48-5.19-1.44-1.43-.95-2.15-2.58-2.15-4.86v-15.21c0-1.42-.25-2.4-.76-2.95s-1.43-.83-2.77-.83c-.05,0-.1-.07-.18-.2-.07-.14-.1-.27-.1-.41,0-.18.02-.33.07-.44.05-.12.12-.18.21-.18,2.35-.09,4.26-.59,5.72-1.51,1.45-.91,2.57-2.3,3.36-4.18.09-.18.29-.27.59-.27s.45.09.45.27v5.48c2.68-.05,5.68-.26,9.01-.62.09,0,.19.17.31.52.12.34.17.72.17,1.13,0,.46-.08.9-.24,1.34-.16.43-.34.63-.52.58-3-.64-5.91-.98-8.73-1.03v16.24c0,1.73.45,3.01,1.35,3.83.9.82,2.09,1.23,3.57,1.23,1.85,0,3.64-.69,5.4-2.05l.14-.07Z"/>
    <path class="cls-6" d="M788.2,1041.42c.1,0,.2.09.32.27s.13.32.03.41c-1.71,1.65-3.44,2.84-5.19,3.57-1.76.73-3.67,1.09-5.75,1.09-2.91,0-5.42-.6-7.55-1.82-2.13-1.21-3.74-2.83-4.85-4.86-1.11-2.03-1.66-4.24-1.66-6.61,0-2.65.67-5.09,2.01-7.33,1.34-2.24,3.19-4,5.58-5.31,2.37-1.3,5.07-1.95,8.07-1.95s5.08.64,6.65,1.92c1.57,1.28,2.35,3.26,2.35,5.96,0,1.42-.26,2.13-.76,2.13l-16.84.07c-.04.32-.07.84-.07,1.57,0,4.02.94,7.17,2.81,9.46,1.87,2.28,4.56,3.43,8.07,3.43,1.25,0,2.31-.14,3.18-.41.88-.27,2.03-.78,3.47-1.51l.13-.07ZM772.76,1022.21c-1.01,1.3-1.69,3.09-2.01,5.38l10.05-.13c-.05-2.33-.39-4.11-1.04-5.34-.65-1.23-1.71-1.85-3.19-1.85s-2.79.66-3.81,1.96Z"/>
    <path class="cls-6" d="M829.22,1045.53c0,.27-.07.41-.21.41-1.2,0-2.14-.02-2.84-.07l-4.16-.07-4.01.07c-.74.04-1.71.07-2.91.07-.14,0-.21-.14-.21-.41s.07-.41.21-.41c1.43,0,2.4-.33,2.91-1s.76-1.91.76-3.74v-9.86c0-2.47-.45-4.29-1.35-5.48-.9-1.18-2.32-1.78-4.26-1.78-1.11,0-2.25.22-3.43.69-1.18.46-2.2,1.07-3.09,1.85v14.59c0,1.83.27,3.07.8,3.74.53.66,1.51,1,2.94,1,.14,0,.21.13.21.41s-.07.41-.21.41c-1.2,0-2.14-.02-2.84-.07l-4.16-.07-4.09.07c-.69.04-1.64.07-2.84.07-.14,0-.21-.14-.21-.41s.07-.41.21-.41c1.43,0,2.4-.33,2.91-1,.5-.66.76-1.91.76-3.74v-12.88c0-1.42-.17-2.45-.52-3.12s-.89-1-1.63-1c-.79,0-1.89.32-3.33.96h-.14c-.13,0-.24-.11-.31-.34-.07-.23-.05-.36.04-.41l9.63-4.66c.28-.09.44-.13.49-.13.51,0,.99.49,1.46,1.47.46.98.73,2.32.83,4.01,3.19-3.75,6.7-5.62,10.53-5.62,2.5,0,4.47.79,5.92,2.36,1.46,1.58,2.19,3.64,2.19,6.2v13.15c0,1.83.26,3.07.8,3.74.53.66,1.51,1,2.94,1,.14,0,.21.13.21.41Z"/>
    <path class="cls-6" d="M856.09,1041.14c.19,0,.33.1.46.28.11.18.1.32-.04.41-1.71,1.69-3.37,2.93-4.99,3.74-1.62.8-3.33,1.2-5.13,1.2-2.03,0-3.77-.48-5.2-1.44-1.43-.95-2.14-2.58-2.14-4.86v-15.21c0-1.42-.26-2.4-.77-2.95s-1.43-.83-2.77-.83c-.05,0-.1-.07-.18-.2-.07-.14-.1-.27-.1-.41,0-.18.02-.33.07-.44.04-.12.12-.18.21-.18,2.36-.09,4.26-.59,5.72-1.51,1.45-.91,2.58-2.3,3.36-4.18.09-.18.29-.27.59-.27s.45.09.45.27v5.48c2.68-.05,5.68-.26,9.01-.62.09,0,.19.17.31.52.12.34.18.72.18,1.13,0,.46-.09.9-.24,1.34-.16.43-.33.63-.52.58-3-.64-5.91-.98-8.73-1.03v16.24c0,1.73.45,3.01,1.35,3.83.9.82,2.09,1.23,3.57,1.23,1.85,0,3.65-.69,5.41-2.05l.13-.07Z"/>
    <path class="cls-6" d="M889.41,1042.24c.18,0,.31.1.38.31.07.21,0,.35-.18.44l-7.14,3.36c-.18.09-.41.13-.69.13-.73,0-1.44-.39-2.11-1.17-.67-.77-1.14-1.82-1.42-3.15l-2.98,2.05c-1.06.78-2.05,1.34-2.98,1.68-.92.35-1.97.52-3.12.52-1.99,0-3.49-.44-4.51-1.3-1.01-.87-1.52-2.08-1.52-3.63,0-1.23.3-2.23.9-2.98.6-.75,1.35-1.34,2.25-1.78.9-.43,2.16-.92,3.78-1.47l1.73-.62,6.23-2.26v-3.91c0-2.92-.24-5.05-.72-6.37-.49-1.32-1.31-1.99-2.46-1.99-2.45,0-3.83,1.87-4.16,5.62-.13,1.37-.54,2.35-1.21,2.95s-1.6.89-2.81.89-2-.24-2.53-.72c-.53-.48-.8-1.11-.8-1.88,0-1.37.81-2.68,2.43-3.94,1.62-1.25,3.57-2.27,5.85-3.05,2.29-.77,4.31-1.16,6.06-1.16,2.03,0,3.69.63,4.96,1.88,1.27,1.26,1.91,3.16,1.91,5.72v12.12c0,1.32.24,2.35.72,3.08.49.73,1.17,1.1,2.05,1.1.64,0,1.31-.16,2.01-.48h.07ZM878.12,1041.01c-.05-.18-.07-.48-.07-.89v-6.57l-2.98,1.37c-.14.05-.6.22-1.38.52-.79.3-1.47.78-2.05,1.47s-.86,1.49-.86,2.4c0,1.09.36,1.95,1.08,2.57.71.61,1.53.92,2.46.92.73,0,1.5-.25,2.28-.75l1.52-1.03ZM874.79,1013.61c-.13,0-.26-.03-.38-.1-.12-.07-.15-.13-.1-.18l2.28-16.44c.09-.18.86-.39,2.28-.65,1.43-.25,2.64-.38,3.6-.38.65,0,.95.1.9.28l-8.31,17.33c0,.09-.09.13-.28.13Z"/>
    <path class="cls-6" d="M924.6,1019.91c0,.27-.05.41-.14.41-1.34,0-2.53.5-3.57,1.51s-2.02,2.56-2.95,4.66l-8.52,19.45c-.05.23-.3.34-.76.34-.37,0-.63-.11-.77-.34l-10.6-20.75c-.97-2.01-1.82-3.32-2.56-3.94-.74-.61-1.64-.92-2.7-.92-.13,0-.21-.14-.21-.41s.07-.41.21-.41c.83,0,1.52.02,2.08.07l4.65.07,5.33-.07c.78-.05,1.87-.07,3.26-.07.14,0,.21.14.21.41s-.07.41-.21.41c-2.68,0-4.02.52-4.02,1.57,0,.27.12.64.35,1.1l7.76,14.38,4.57-10.96c.36-.96.55-1.79.55-2.47,0-1.14-.39-2.03-1.18-2.67-.78-.64-1.87-.96-3.26-.96-.09,0-.14-.14-.14-.41s.05-.41.14-.41c1.25,0,2.19.02,2.84.07l4.15.07,2.77-.07c.55-.05,1.41-.07,2.56-.07.09,0,.14.14.14.41Z"/>
    <path class="cls-6" d="M953.83,1041.42c.1,0,.2.09.32.27s.13.32.03.41c-1.71,1.65-3.44,2.84-5.19,3.57-1.76.73-3.67,1.09-5.75,1.09-2.91,0-5.42-.6-7.55-1.82-2.13-1.21-3.74-2.83-4.85-4.86-1.11-2.03-1.66-4.24-1.66-6.61,0-2.65.67-5.09,2.01-7.33,1.34-2.24,3.19-4,5.58-5.31,2.37-1.3,5.07-1.95,8.07-1.95s5.08.64,6.65,1.92c1.57,1.28,2.35,3.26,2.35,5.96,0,1.42-.26,2.13-.76,2.13l-16.84.07c-.04.32-.07.84-.07,1.57,0,4.02.94,7.17,2.81,9.46s4.56,3.43,8.07,3.43c1.25,0,2.31-.14,3.18-.41.88-.27,2.03-.78,3.47-1.51l.13-.07ZM938.39,1022.21c-1.01,1.3-1.69,3.09-2.01,5.38l10.05-.13c-.05-2.33-.39-4.11-1.04-5.34-.65-1.23-1.71-1.85-3.19-1.85s-2.79.66-3.81,1.96Z"/>
    <path class="cls-6" d="M961.66,1045.53c0-.27.05-.41.14-.41,1.43,0,2.41-.33,2.95-1,.53-.66.8-1.91.8-3.74l.07-34.79c0-1.6-.15-2.74-.46-3.43-.3-.69-.82-1.03-1.55-1.03-.6,0-1.48.25-2.64.75h-.07c-.14,0-.27-.13-.38-.38-.12-.26-.13-.4-.04-.45l10.19-4.73.28-.07c.23,0,.49.1.76.31.28.21.42.4.42.58v43.22c0,1.83.25,3.07.76,3.74s1.48,1,2.91,1c.18,0,.28.13.28.41s-.1.41-.28.41c-1.15,0-2.08-.02-2.77-.07l-4.23-.07-4.15.07c-.69.04-1.64.07-2.84.07-.09,0-.14-.14-.14-.41Z"/>
    <path class="cls-6" d="M505.79,1119.78c.14,0,.26.12.38.34.12.23.13.37.04.41l-9.56,4.59-.35.07c-.41,0-.8-.44-1.14-1.3-.35-.87-.56-2.06-.66-3.57-3.42,3.2-6.91,4.8-10.46,4.8-2.03,0-3.87-.53-5.5-1.58-1.64-1.05-2.95-2.59-3.92-4.62-.97-2.03-1.45-4.42-1.45-7.16,0-3.47.82-6.31,2.46-8.53,1.63-2.22,3.67-3.83,6.09-4.83,2.43-1,4.86-1.51,7.31-1.51,1.71,0,3.5.27,5.4.82v-13.84c0-1.6-.15-2.74-.45-3.43s-.82-1.03-1.56-1.03c-.6,0-1.45.25-2.56.75h-.07c-.18,0-.33-.13-.45-.38-.12-.26-.13-.4-.04-.45l10.19-4.73.27-.07c.23,0,.49.1.77.31s.41.4.41.58v40.83c0,1.55.15,2.65.45,3.29.3.64.8.96,1.49.96.6,0,1.54-.25,2.84-.75h.07ZM494.43,1118.96v-16.99c-.83-1.14-1.77-1.97-2.81-2.5-1.04-.53-2.25-.79-3.63-.79-2.5,0-4.4.86-5.72,2.57-1.32,1.71-1.97,4.49-1.97,8.32s.69,6.84,2.08,9.01c1.38,2.17,3.21,3.25,5.47,3.25s4.5-.96,6.58-2.87Z"/>
    <path class="cls-6" d="M536.62,1119.71c.09,0,.19.09.31.27s.13.32.04.41c-1.71,1.65-3.44,2.84-5.19,3.57-1.76.73-3.67,1.09-5.75,1.09-2.91,0-5.42-.6-7.55-1.82-2.13-1.21-3.74-2.83-4.85-4.86-1.11-2.03-1.66-4.24-1.66-6.61,0-2.65.67-5.09,2-7.33,1.34-2.24,3.2-4,5.58-5.31,2.37-1.3,5.07-1.95,8.07-1.95s5.08.64,6.65,1.92c1.57,1.28,2.36,3.26,2.36,5.96,0,1.42-.26,2.13-.76,2.13l-16.84.07c-.05.32-.07.84-.07,1.57,0,4.02.94,7.17,2.81,9.46,1.87,2.28,4.56,3.43,8.07,3.43,1.25,0,2.31-.14,3.19-.41.87-.27,2.03-.78,3.46-1.51l.14-.07ZM521.17,1100.49c-1.02,1.3-1.69,3.09-2.01,5.38l10.05-.13c-.05-2.33-.39-4.11-1.04-5.34-.65-1.23-1.71-1.85-3.19-1.85s-2.79.66-3.81,1.96Z"/>
    <path class="cls-6" d="M594.87,1091.14c0,.1-.13.16-.38.21-.25.05-.4,0-.45-.13-.73-2.65-1.99-4.62-3.74-5.89-1.76-1.28-4.06-1.92-6.92-1.92h-2.08c-1.38,0-2.41.3-3.05.89-.65.6-.97,1.51-.97,2.75v14.79h4.99c2.68,0,4.73-.47,6.13-1.4s2.11-2.23,2.11-3.87c0-.09.13-.13.41-.13s.42.04.42.13l-.07,6.24c0,1.46.02,2.56.07,3.29l.07,3.63c0,.13-.14.21-.42.21s-.41-.07-.41-.21c0-1.83-.73-3.28-2.18-4.35-1.46-1.08-3.52-1.61-6.2-1.61h-4.92v14.66c0,1.42.18,2.47.55,3.15s1.06,1.17,2.08,1.44c1.01.27,2.61.41,4.78.41.09,0,.13.13.13.41s-.04.41-.13.41c-1.89,0-3.38-.02-4.43-.07l-7.07-.07-5.19.07c-.92.04-2.19.07-3.81.07-.14,0-.21-.14-.21-.41s.07-.41.21-.41c1.62,0,2.79-.12,3.53-.35.74-.22,1.24-.67,1.49-1.34.26-.66.38-1.68.38-3.05v-31.72c0-1.37-.12-2.37-.35-3.01s-.69-1.08-1.38-1.34c-.69-.25-1.76-.38-3.19-.38-.13,0-.21-.13-.21-.41s.07-.41.21-.41h29.37c.46,0,.69.21.69.61l.14,9.11Z"/>
    <path class="cls-6" d="M625.25,1098.23c.99.75,1.49,1.65,1.49,2.7,0,.96-.3,1.75-.9,2.36-.6.62-1.39.93-2.36.93-.69,0-1.26-.14-1.7-.41s-.89-.69-1.35-1.23c-.42-.46-.78-.79-1.08-1-.3-.2-.66-.3-1.08-.3-.46,0-.96.17-1.49.51-.53.35-1.35,1.06-2.46,2.16v14.73c0,1.83.44,3.07,1.32,3.74.87.66,2.49,1,4.85,1,.19,0,.28.13.28.41s-.09.41-.28.41c-1.62,0-2.88-.02-3.81-.07l-5.61-.07-4.09.07c-.69.04-1.64.07-2.84.07-.14,0-.21-.14-.21-.41s.07-.41.21-.41c1.43,0,2.4-.33,2.91-1,.5-.66.76-1.91.76-3.74v-12.88c0-1.42-.17-2.45-.52-3.12-.35-.66-.89-1-1.63-1-.78,0-1.89.32-3.32.96h-.14c-.14,0-.24-.11-.31-.34-.07-.23-.06-.36.04-.41l9.63-4.66c.28-.09.44-.13.49-.13.5,0,.98.47,1.42,1.4.44.94.7,2.2.8,3.8,1.89-1.92,3.45-3.27,4.68-4.04,1.22-.77,2.3-1.16,3.22-1.16,1.06,0,2.09.38,3.09,1.13Z"/>
    <path class="cls-6" d="M665.74,1119.78c.13,0,.26.12.38.34.12.23.1.37-.03.41l-9.56,4.59c-.1.04-.21.07-.35.07-.46,0-.87-.49-1.21-1.48-.35-.98-.54-2.31-.59-4-3.05,3.56-6.35,5.34-9.91,5.34-2.54,0-4.54-.78-5.99-2.36-1.46-1.57-2.19-3.64-2.19-6.19v-10.07c0-2.97-.72-4.46-2.14-4.46-.51,0-1.09.16-1.73.48h-.07c-.18,0-.32-.12-.41-.38-.1-.25-.07-.39.07-.44l9.28-4.39.35-.07c.23,0,.47.1.73.31.26.2.38.4.38.58v15.14c0,4.93,1.91,7.4,5.75,7.4,1.01,0,2.04-.21,3.08-.65,1.04-.43,1.97-1.04,2.81-1.82v-11.71c0-2.97-.72-4.46-2.14-4.46-.51,0-1.11.16-1.8.48h-.07c-.14,0-.26-.12-.35-.38-.1-.25-.07-.39.07-.44l9.28-4.39c.09-.04.21-.07.35-.07.23,0,.47.1.73.31.26.2.38.4.38.58v18.22c0,1.55.15,2.65.45,3.29.3.64.8.96,1.49.96.65,0,1.6-.25,2.84-.75h.14Z"/>
    <path class="cls-6" d="M692.06,1119.43c.18,0,.33.1.45.28s.1.32-.04.41c-1.71,1.69-3.37,2.93-4.99,3.74-1.62.8-3.33,1.2-5.13,1.2-2.03,0-3.77-.48-5.2-1.44-1.43-.95-2.14-2.58-2.14-4.86v-15.21c0-1.42-.26-2.4-.77-2.95-.5-.55-1.43-.83-2.77-.83-.04,0-.1-.07-.17-.2-.07-.14-.1-.27-.1-.41,0-.18.02-.33.07-.44.04-.12.12-.18.21-.18,2.36-.09,4.26-.59,5.72-1.51,1.46-.91,2.58-2.3,3.36-4.18.09-.18.29-.27.59-.27s.45.09.45.27v5.48c2.68-.05,5.68-.26,9.01-.62.09,0,.19.17.31.52.12.34.18.72.18,1.13,0,.46-.08.9-.24,1.34-.16.43-.33.63-.52.58-3.01-.64-5.92-.98-8.73-1.03v16.24c0,1.73.46,3.01,1.35,3.83s2.09,1.23,3.57,1.23c1.85,0,3.65-.69,5.41-2.05l.14-.07Z"/>
    <path class="cls-6" d="M725.38,1120.53c.18,0,.31.1.38.31.07.21.01.35-.17.44l-7.14,3.36c-.18.09-.41.13-.69.13-.74,0-1.45-.39-2.11-1.17-.67-.77-1.14-1.82-1.42-3.15l-2.98,2.05c-1.06.78-2.05,1.34-2.98,1.68-.93.35-1.97.52-3.12.52-1.99,0-3.49-.44-4.5-1.3-1.01-.87-1.52-2.08-1.52-3.63,0-1.23.3-2.23.9-2.98s1.35-1.34,2.25-1.78c.9-.43,2.16-.92,3.78-1.47l1.73-.62,6.23-2.26v-3.91c0-2.92-.24-5.05-.73-6.37-.48-1.32-1.31-1.99-2.45-1.99-2.45,0-3.84,1.87-4.16,5.62-.14,1.37-.54,2.35-1.21,2.95-.67.6-1.61.89-2.81.89s-2-.24-2.53-.72c-.53-.48-.8-1.11-.8-1.88,0-1.37.81-2.68,2.42-3.94,1.62-1.25,3.57-2.27,5.85-3.05,2.29-.77,4.31-1.16,6.06-1.16,2.03,0,3.68.63,4.96,1.88,1.27,1.26,1.9,3.16,1.9,5.72v12.12c0,1.32.24,2.35.73,3.08.49.73,1.17,1.1,2.05,1.1.64,0,1.31-.16,2-.48h.07ZM714.09,1119.3c-.05-.18-.07-.48-.07-.89v-6.57l-2.98,1.37c-.14.05-.6.22-1.38.52-.79.3-1.47.78-2.05,1.47s-.86,1.49-.86,2.4c0,1.09.35,1.95,1.07,2.57.72.61,1.54.92,2.46.92.74,0,1.5-.25,2.29-.75l1.52-1.03Z"/>
    <path class="cls-6" d="M731.26,1123.81c0-.27.05-.41.14-.41,1.43,0,2.41-.33,2.95-1,.53-.66.8-1.91.8-3.74l.07-34.79c0-1.6-.15-2.74-.45-3.43s-.82-1.03-1.56-1.03c-.6,0-1.48.25-2.63.75h-.07c-.14,0-.27-.13-.38-.38-.12-.26-.13-.4-.04-.45l10.19-4.73.27-.07c.23,0,.49.1.77.31s.41.4.41.58v43.22c0,1.83.26,3.07.77,3.74.5.66,1.48,1,2.91,1,.18,0,.27.13.27.41s-.09.41-.27.41c-1.15,0-2.08-.02-2.77-.07l-4.23-.07-4.15.07c-.69.04-1.64.07-2.84.07-.09,0-.14-.14-.14-.41Z"/>
  </g>
</svg>